<svg xmlns="http://www.w3.org/2000/svg" width="100" height="100" viewBox="0 0 100 100">
  <g id="Grupo_1123285" data-name="Grupo 1123285" transform="translate(-180.051 -1187)">
    <g id="Grupo_1112408" data-name="Grupo 1112408">
      <path id="Rectángulo_404436" data-name="Rectángulo 404436" d="M10,0h90a0,0,0,0,1,0,0V100a0,0,0,0,1,0,0H10A10,10,0,0,1,0,90V10A10,10,0,0,1,10,0Z" transform="translate(180.051 1187)" fill="#f0e077"/>
      <g id="Grupo_1112428" data-name="Grupo 1112428" transform="translate(194.104 1202.041)">
        <g id="Grupo_1112417" data-name="Grupo 1112417" transform="translate(53.631 15.821)">
          <g id="Grupo_1112416" data-name="Grupo 1112416">
            <path id="Trazado_979255" data-name="Trazado 979255" d="M388.152,114.2a1.038,1.038,0,0,0-.814,1.221,1.025,1.025,0,0,0,.284.532,1.038,1.038,0,1,0,.53-1.753Z" transform="translate(-387.316 -114.184)" fill="#008db6"/>
          </g>
        </g>
        <g id="Grupo_1112419" data-name="Grupo 1112419" transform="translate(36.375 17.097)">
          <g id="Grupo_1112418" data-name="Grupo 1112418">
            <path id="Trazado_979256" data-name="Trazado 979256" d="M270.355,130.039a1.039,1.039,0,0,0-1.462-.137,2.492,2.492,0,0,1-1.216.548l-.026,0a2.5,2.5,0,1,1-.742-4.953l.024,0a2.49,2.49,0,0,1,1.325.166,1.038,1.038,0,1,0,.8-1.918,4.659,4.659,0,0,0-2.455-.3,4.584,4.584,0,1,0,3.619,8.055A1.039,1.039,0,0,0,270.355,130.039Z" transform="translate(-262.697 -123.396)" fill="#008db6"/>
          </g>
        </g>
        <g id="Grupo_1112421" data-name="Grupo 1112421" transform="translate(15.187 54.22)">
          <g id="Grupo_1112420" data-name="Grupo 1112420">
            <path id="Trazado_979257" data-name="Trazado 979257" d="M110.92,391.51a1.038,1.038,0,1,0,.836,1.018A1.039,1.039,0,0,0,110.92,391.51Z" transform="translate(-109.679 -391.49)" fill="#008db6"/>
          </g>
        </g>
        <g id="Grupo_1112423" data-name="Grupo 1112423" transform="translate(26.068 56.528)">
          <g id="Grupo_1112422" data-name="Grupo 1112422">
            <path id="Trazado_979258" data-name="Trazado 979258" d="M189.617,408.564a1.038,1.038,0,1,0,.847,1.9,2.509,2.509,0,1,1-.524,4.254,1.039,1.039,0,0,0-1.282,1.634,4.586,4.586,0,1,0,.96-7.785Z" transform="translate(-188.26 -408.162)" fill="#008db6"/>
          </g>
        </g>
        <g id="Grupo_1112425" data-name="Grupo 1112425" transform="translate(-0.001 0.012)">
          <g id="Grupo_1112424" data-name="Grupo 1112424" transform="translate(0 0)">
            <path id="Trazado_979259" data-name="Trazado 979259" d="M61.869,22.012c.43-.468.861-.966,1.279-1.482a3.99,3.99,0,0,0,.355-4.485C62.786,14.789,56.7,8.384,47.127,6.18A18.915,18.915,0,0,0,30.172.248,2.36,2.36,0,0,0,28.318,1.76a2.376,2.376,0,0,0,.391,2.378,16.9,16.9,0,0,1,1.836,2.736c-7.75,2.481-14.5,8.442-18.9,15.286l-.135.212c-.061.1-.123.193-.184.291-.073.117-.146.235-.218.354l-.057.093-.007.013q-.443.729-.87,1.5a1.383,1.383,0,0,1-.453.493L.859,30.855A1.877,1.877,0,0,0,2,34.3l7.607-.481a2.99,2.99,0,0,1,2.338.905L17.4,40.368a1.785,1.785,0,0,0,3.032-1.612c-1.976-9.732-2.248-9.687-1.894-9.983a4.681,4.681,0,0,1,5.165-.644,7.469,7.469,0,0,1-1.778,2.1,1.651,1.651,0,0,0,.461,2.824,9.488,9.488,0,0,0,9.455-1.647,30.182,30.182,0,0,0,10.225.543,1.038,1.038,0,1,0-.268-2.06,26.836,26.836,0,0,1-16.188-3.118c-4.2-2.457-7.277-.534-8.4.407a2.49,2.49,0,0,0-.834,2.436L18.191,38.2l-4.755-4.915a5.057,5.057,0,0,0-3.962-1.534l-6.844.433,8.217-5.324a3.467,3.467,0,0,0,1.143-1.233q.367-.666.749-1.3a47.334,47.334,0,0,1,13.513-8.413,1.038,1.038,0,1,0-.765-1.931,45.818,45.818,0,0,0-8.33,4.373A34.836,34.836,0,0,1,29.2,9.562,29.294,29.294,0,0,1,48.7,8.76a20.208,20.208,0,0,0-1.365,3.424,33.783,33.783,0,0,0-17.075.239,1.039,1.039,0,1,0,.52,2.011,32.049,32.049,0,0,1,16.074-.222,19.89,19.89,0,0,0,2.639,14.03c-1.007.278-2.024.537-3.03.771a1.039,1.039,0,1,0,.47,2.023c4.24-.985,11.616-3.2,15.283-5.494a2.041,2.041,0,0,0,1.05-1.568C63.337,22.817,62.255,22.4,61.869,22.012ZM25.49,29.193a33.755,33.755,0,0,0,3.76,1.486,7.425,7.425,0,0,1-5.436.652A9.589,9.589,0,0,0,25.49,29.193Zm7.1-22.9a19,19,0,0,0-2.275-3.479.315.315,0,0,1-.052-.322.3.3,0,0,1,.238-.2A16.875,16.875,0,0,1,43.391,5.557,31.633,31.633,0,0,0,32.588,6.3ZM60.429,23.524l.486.379a49.053,49.053,0,0,1-9.345,3.737,17.8,17.8,0,0,1-.888-18.19,29.294,29.294,0,0,1,10.759,7.271,1.914,1.914,0,0,1,.091,2.5c-.418.516-.863,1.029-1.322,1.522A1.889,1.889,0,0,0,60.429,23.524Z" transform="translate(0.001 -0.012)" fill="#008db6"/>
          </g>
        </g>
        <g id="Grupo_1112427" data-name="Grupo 1112427" transform="translate(5.003 35.375)">
          <g id="Grupo_1112426" data-name="Grupo 1112426">
            <path id="Trazado_979260" data-name="Trazado 979260" d="M100.028,262.015l-7.607.481a2.987,2.987,0,0,1-2.338-.905l-5.458-5.641a1.787,1.787,0,0,0-3.032,1.612c1.991,9.807,2.257,9.681,1.888,9.988a4.632,4.632,0,0,1-4.642.838c-1.882-.632-3.634-2.425-9.148-3.584a16.875,16.875,0,0,1,1.5-2.809,2.4,2.4,0,0,0-1.86-3.717,18.906,18.906,0,0,0-16.086,7.458,59.62,59.62,0,0,0-14.706,5.642,4.809,4.809,0,0,0,.267,8.466l.147.077a1.837,1.837,0,0,0-.094,3.2A64.219,64.219,0,0,0,50.3,288.7a31.329,31.329,0,0,0,24.936-.737,8.891,8.891,0,0,0,9.829-.357,1.8,1.8,0,0,0-.166-2.979,8.54,8.54,0,0,1-2.089-1.737c.908-.784,1.839-1.659,2.774-2.636a1.039,1.039,0,0,0-1.5-1.436c-5.751,6.014-12.582,9.708-21.1,10.018a29.031,29.031,0,0,1-9.665-1.269,19.88,19.88,0,0,0,1.236-15.086c10.749-4.461,22.681-2.295,23.691-2.1a6.771,6.771,0,0,0,6.559-1.233,2.482,2.482,0,0,0,.847-2.427l-1.822-8.6,4.755,4.915a5.062,5.062,0,0,0,3.962,1.534l6.844-.433-8.217,5.324c-1.353.877-1.122,1.817-4.043,5.742a1.039,1.039,0,0,0,1.666,1.24,41.826,41.826,0,0,0,3.067-4.772c.279-.507-.06-.079,9.3-6.207A1.878,1.878,0,0,0,100.028,262.015ZM81.2,284.2a10.771,10.771,0,0,0,2.26,1.975,6.728,6.728,0,0,1-5.979.563A36.9,36.9,0,0,0,81.2,284.2ZM69.215,260.352a.319.319,0,0,1,.239.5,18.964,18.964,0,0,0-1.859,3.593,29.671,29.671,0,0,0-10.843.477C57.984,263.756,64.178,260.083,69.215,260.352ZM51.342,286.876a64.62,64.62,0,0,1-11.057-5.3c.177-.128,1.351-.367,1.391-1.583a1.54,1.54,0,0,0-.823-1.419,6.812,6.812,0,0,1-1.8-1.072,2.722,2.722,0,0,1,.048-3.985,41.222,41.222,0,0,1,9.339-4.19l.237-.079.244-.08q.761-.248,1.537-.483A17.811,17.811,0,0,1,51.342,286.876Zm2.483-16.341a19.794,19.794,0,0,0-1.288-2.456c6.787-1.868,12.693-2.83,19.747-.412A44.34,44.34,0,0,0,53.825,270.534Z" transform="translate(-36.133 -255.4)" fill="#008db6"/>
          </g>
        </g>
      </g>
    </g>
  </g>
</svg>
