<svg xmlns="http://www.w3.org/2000/svg" xmlns:xlink="http://www.w3.org/1999/xlink" width="70" height="67" viewBox="0 0 70 67">
  <defs>
    <clipPath id="clip-path">
      <rect id="Rectángulo_404835" data-name="Rectángulo 404835" width="70" height="67" transform="translate(615.051 1206)" fill="none" stroke="#707070" stroke-width="1"/>
    </clipPath>
  </defs>
  <g id="Enmascarar_grupo_1100141" data-name="Enmascarar grupo 1100141" transform="translate(-615.051 -1206)" clip-path="url(#clip-path)">
    <path id="Trazado_979261" data-name="Trazado 979261" d="M71.668,26.165h.005A4.668,4.668,0,0,0,68.627,24.1L11.848,15.261a4.079,4.079,0,0,0-4.655,3.406l-.95,6.106A4.084,4.084,0,0,0,3.5,28.624V62.753a4.085,4.085,0,0,0,4.081,4.081H68.419A4.086,4.086,0,0,0,72.5,62.753V28.624a4.054,4.054,0,0,0-.832-2.459ZM9.392,19.009a1.849,1.849,0,0,1,.738-1.214,1.826,1.826,0,0,1,1.374-.336l45.518,7.084H8.531l.861-5.534ZM70.274,62.753a1.857,1.857,0,0,1-1.855,1.855H7.581a1.857,1.857,0,0,1-1.855-1.855V28.624a1.857,1.857,0,0,1,1.855-1.855H68.419a1.857,1.857,0,0,1,1.855,1.855ZM65.452,34.931a3.342,3.342,0,0,1-3.339-3.339A1.113,1.113,0,0,0,61,30.479H15a1.113,1.113,0,0,0-1.113,1.113,3.342,3.342,0,0,1-3.339,3.339,1.113,1.113,0,0,0-1.113,1.113v19.29a1.113,1.113,0,0,0,1.113,1.113,3.342,3.342,0,0,1,3.339,3.339A1.113,1.113,0,0,0,15,60.9H61a1.113,1.113,0,0,0,1.113-1.113,3.342,3.342,0,0,1,3.339-3.339,1.113,1.113,0,0,0,1.113-1.113V36.043A1.113,1.113,0,0,0,65.452,34.931Zm-1.113,19.4A5.582,5.582,0,0,0,60,58.672H16a5.581,5.581,0,0,0-4.34-4.34V37.044A5.581,5.581,0,0,0,16,32.7H60a5.582,5.582,0,0,0,4.34,4.34ZM19.452,41.608a4.081,4.081,0,1,0,4.081,4.081A4.085,4.085,0,0,0,19.452,41.608Zm0,5.935a1.855,1.855,0,1,1,1.855-1.855A1.857,1.857,0,0,1,19.452,47.543Zm37.1-5.935a4.081,4.081,0,1,0,4.081,4.081A4.086,4.086,0,0,0,56.548,41.608Zm0,5.935A1.855,1.855,0,1,1,58.4,45.689,1.857,1.857,0,0,1,56.548,47.543ZM38,34.189a11.5,11.5,0,1,0,11.5,11.5A11.513,11.513,0,0,0,38,34.189Zm0,20.774a9.274,9.274,0,1,1,9.274-9.274A9.285,9.285,0,0,1,38,54.963ZM36.508,43.091v.428a.839.839,0,0,0,.637.815l2.25.563a3.061,3.061,0,0,1,2.323,2.975V48.3a3.063,3.063,0,0,1-2.6,3.02v.887a1.113,1.113,0,0,1-2.226,0V51.32a3.063,3.063,0,0,1-2.6-3.02,1.113,1.113,0,0,1,2.226,0,.842.842,0,0,0,.841.841h1.3a.842.842,0,0,0,.841-.841v-.428a.839.839,0,0,0-.637-.815l-2.25-.563a3.062,3.062,0,0,1-2.323-2.975v-.428a3.062,3.062,0,0,1,2.6-3.02v-.79a1.113,1.113,0,0,1,2.226,0v.79a3.063,3.063,0,0,1,2.6,3.02,1.113,1.113,0,0,1-2.226,0,.842.842,0,0,0-.841-.84h-1.3A.842.842,0,0,0,36.508,43.091Z" transform="translate(612.551 1195.79)" fill="#008db6"/>
  </g>
</svg>
