<svg xmlns="http://www.w3.org/2000/svg" width="69.879" height="65.85" viewBox="0 0 69.879 65.85">
  <g id="Outline" transform="translate(-1.99 -2)">
    <g id="Grupo_1112431" data-name="Grupo 1112431" transform="translate(1.99 2)">
      <path id="Trazado_979262" data-name="Trazado 979262" d="M15.059,49.709h0A24.252,24.252,0,0,0,39.218,54.1a1.163,1.163,0,0,0,.431-1.921l-8.033-8.022a1.164,1.164,0,0,0-1.316-.268,21.865,21.865,0,0,1-9.838,2.329,22.122,22.122,0,0,1-3.341-.291,21.911,21.911,0,0,1,5.519-12.178l4.413,4.4a1.166,1.166,0,0,0,1.642,0,8.08,8.08,0,0,0,.466-10.956,1.164,1.164,0,1,0-1.781,1.49,5.821,5.821,0,0,1,.407,6.916l-3.493-3.493c.373-.338.745-.652,1.164-.966a1.183,1.183,0,1,0-1.5-1.828,25.615,25.615,0,0,0-2.131,1.909h-.058v.07A24.263,24.263,0,0,0,14.78,46.1,22.121,22.121,0,0,1,28.064,9.146l.547-.058a17.382,17.382,0,0,0,6.194,13.2,1.165,1.165,0,1,0,1.5-1.781A15.066,15.066,0,0,1,30.94,8.96a22.121,22.121,0,0,1,18.78,10.478l-7.638,4.017a6.322,6.322,0,0,1-2.992.64h0a24.356,24.356,0,0,0-6.741.943,1.164,1.164,0,0,0,.64,2.235,22.459,22.459,0,0,1,6.1-.85h0a8.616,8.616,0,0,0,4.04-.955L51.9,20.882a1.164,1.164,0,0,0,.477-1.583A24.356,24.356,0,0,0,29.915,6.631h0a16.508,16.508,0,0,0-1.84.14L25.4,2.7a1.164,1.164,0,0,0-1.164-.524A24.45,24.45,0,0,0,9.785,43.294a24.45,24.45,0,0,0,5.274,6.415Zm15.52-3.376,6.089,6.1a22.121,22.121,0,0,1-19.595-4.145,23.6,23.6,0,0,0,13.505-1.956ZM5.5,23.595A22.272,22.272,0,0,1,23.849,4.582l1.711,2.643A24.636,24.636,0,0,0,6.688,27.961a24.123,24.123,0,0,0,0,6.008A22.121,22.121,0,0,1,5.5,23.595Z" transform="translate(-1.822 -1.974)" fill="#008db6"/>
      <circle id="Elipse_11811" data-name="Elipse 11811" cx="1" cy="1" r="1" transform="translate(34.93 10.645)" fill="#008db6"/>
      <path id="Trazado_979263" data-name="Trazado 979263" d="M53.3,21.63V39.256a6.986,6.986,0,1,1-13.971,0V35.764l2.794,2.1A1.164,1.164,0,0,0,43.52,36L38.863,32.5A1.167,1.167,0,0,0,37,33.435v5.821a9.314,9.314,0,0,0,18.628,0V21.63a4.657,4.657,0,0,0,0-8.988V3.164a1.164,1.164,0,0,0-2.329,0v9.477a4.657,4.657,0,0,0,0,8.988Zm1.164-6.823a2.329,2.329,0,1,1-2.329,2.329A2.329,2.329,0,0,1,54.464,14.807Z" transform="translate(3.761 -2)" fill="#008db6"/>
      <path id="Trazado_979264" data-name="Trazado 979264" d="M20.431,13.322a1.164,1.164,0,0,0-1.339.943,5.821,5.821,0,0,0,4.715,6.741h.21a1.168,1.168,0,0,0,.2-2.329,3.493,3.493,0,0,1-2.887-4.005A1.164,1.164,0,0,0,20.431,13.322Z" transform="translate(0.805 -0.143)" fill="#008db6"/>
      <path id="Trazado_979265" data-name="Trazado 979265" d="M19.4,22.739a1.164,1.164,0,0,0-1.164-1.164,2.911,2.911,0,0,1-2.911-2.911,1.164,1.164,0,0,0-2.329,0A5.251,5.251,0,0,0,18.239,23.9,1.164,1.164,0,0,0,19.4,22.739Z" transform="translate(-0.182 0.546)" fill="#008db6"/>
      <path id="Trazado_979266" data-name="Trazado 979266" d="M12.329,25.664a1.164,1.164,0,0,0-2.329,0A5.251,5.251,0,0,0,15.239,30.9a1.164,1.164,0,1,0,0-2.329A2.911,2.911,0,0,1,12.329,25.664Z" transform="translate(-0.674 1.696)" fill="#008db6"/>
      <path id="Trazado_979267" data-name="Trazado 979267" d="M6.076,54.213a5.3,5.3,0,0,0,3.737-1.548,2.946,2.946,0,0,1,4.168,0,5.286,5.286,0,0,0,7.475,0,2.946,2.946,0,0,1,4.168,0,5.286,5.286,0,0,0,7.475,0,2.946,2.946,0,0,1,4.168,0,5.286,5.286,0,0,0,7.475,0,2.946,2.946,0,0,1,4.168,0,5.286,5.286,0,0,0,7.475,0,2.946,2.946,0,0,1,4.168,0,5.286,5.286,0,0,0,7.475,0,2.911,2.911,0,0,1,2.5-.827,1.176,1.176,0,0,0,.326-2.329,5.262,5.262,0,0,0-4.482,1.479,2.946,2.946,0,0,1-4.168,0,5.286,5.286,0,0,0-7.475,0,2.946,2.946,0,0,1-4.168,0,5.286,5.286,0,0,0-7.475,0,2.946,2.946,0,0,1-4.168,0,5.286,5.286,0,0,0-7.475,0,2.946,2.946,0,0,1-4.168,0,5.286,5.286,0,0,0-7.475,0,2.946,2.946,0,0,1-4.168,0,5.286,5.286,0,0,0-7.475,0,2.946,2.946,0,0,1-4.168,0,1.169,1.169,0,0,0-1.653,1.653,5.3,5.3,0,0,0,3.737,1.572Z" transform="translate(-1.989 5.793)" fill="#008db6"/>
      <path id="Trazado_979268" data-name="Trazado 979268" d="M71.52,56.008a5.286,5.286,0,0,0-7.475,0,2.946,2.946,0,0,1-4.168,0,5.286,5.286,0,0,0-7.475,0,2.946,2.946,0,0,1-4.168,0,5.286,5.286,0,0,0-7.475,0,2.946,2.946,0,0,1-4.168,0,5.286,5.286,0,0,0-7.475,0,2.946,2.946,0,0,1-4.168,0,5.286,5.286,0,0,0-7.475,0,2.946,2.946,0,0,1-4.168,0,5.286,5.286,0,0,0-7.475,0,2.946,2.946,0,0,1-2.5.827A1.176,1.176,0,0,0,3,59.164a5.216,5.216,0,0,0,4.482-1.479,2.946,2.946,0,0,1,4.168,0,5.286,5.286,0,0,0,7.475,0,2.946,2.946,0,0,1,4.168,0,5.286,5.286,0,0,0,7.475,0,2.946,2.946,0,0,1,4.168,0,5.286,5.286,0,0,0,7.475,0,2.946,2.946,0,0,1,4.168,0,5.286,5.286,0,0,0,7.475,0,2.946,2.946,0,0,1,4.168,0,5.286,5.286,0,0,0,7.475,0,2.946,2.946,0,0,1,4.168,0,1.169,1.169,0,0,0,1.653-1.653Z" transform="translate(-1.99 6.617)" fill="#008db6"/>
    </g>
  </g>
</svg>
