<svg xmlns="http://www.w3.org/2000/svg" width="82" height="82" viewBox="0 0 82 82">
  <g id="Grupo_1122539" data-name="Grupo 1122539" transform="translate(-194.051 -495)">
    <g id="Elipse_11822" data-name="Elipse 11822" transform="translate(205.051 506)" fill="#f8a230" stroke="#fcd9ab" stroke-width="11">
      <circle cx="30" cy="30" r="30" stroke="none"/>
      <circle cx="30" cy="30" r="35.5" fill="none"/>
    </g>
    <g id="Grupo_1122534" data-name="Grupo 1122534" transform="translate(217.082 518.323)">
      <path id="Trazado_986300" data-name="Trazado 986300" d="M43.344,44.666C34.451,44.666,25,42.556,25,38.644s9.451-6.022,18.344-6.022,18.344,2.111,18.344,6.022S52.236,44.666,43.344,44.666Zm0-10.715c-10.027,0-17.014,2.473-17.014,4.693s6.987,4.692,17.014,4.692,17.014-2.473,17.014-4.692S53.371,33.952,43.344,33.952Z" transform="translate(-25 -32.622)" fill="#00455a"/>
      <path id="Trazado_986301" data-name="Trazado 986301" d="M64.325,98.589c-6.852,0-13.045-1.173-16.161-3.06a.665.665,0,0,1,0-1.137c3.117-1.888,9.309-3.061,16.161-3.061S77.369,92.5,80.486,94.392a.665.665,0,0,1,0,1.137C77.37,97.416,71.177,98.589,64.325,98.589ZM49.952,94.96c3.161,1.415,8.591,2.3,14.373,2.3s11.211-.885,14.373-2.3c-3.162-1.415-8.591-2.3-14.373-2.3S53.114,93.546,49.952,94.96Z" transform="translate(-45.982 -86.545)" fill="#00455a"/>
      <path id="Trazado_986302" data-name="Trazado 986302" d="M43.344,332.585c-8.893,0-18.344-2.111-18.344-6.022,0-3.55,7.666-5.543,15.264-5.942a.665.665,0,1,1,.07,1.327c-8.65.455-14,2.75-14,4.615,0,2.219,6.987,4.692,17.014,4.692s17.014-2.473,17.014-4.692c0-1.091-1.874-2.32-4.891-3.208a.665.665,0,0,1,.375-1.276c3.824,1.125,5.845,2.675,5.845,4.483C61.688,330.474,52.236,332.585,43.344,332.585Z" transform="translate(-25 -297.14)" fill="#00455a"/>
      <path id="Trazado_986303" data-name="Trazado 986303" d="M459.357,123.068a.665.665,0,0,1-.665-.665V99a.665.665,0,1,1,1.33,0v23.4A.665.665,0,0,1,459.357,123.068Z" transform="translate(-423.334 -92.98)" fill="#00455a"/>
      <path id="Trazado_986304" data-name="Trazado 986304" d="M25.665,123.068A.665.665,0,0,1,25,122.4V99a.665.665,0,1,1,1.329,0v23.4A.665.665,0,0,1,25.665,123.068Z" transform="translate(-25 -92.98)" fill="#00455a"/>
      <path id="Trazado_986305" data-name="Trazado 986305" d="M334.753,396.227a.665.665,0,0,1-.665-.665V391.1a.665.665,0,0,1,1.33,0v4.461A.665.665,0,0,1,334.753,396.227Z" transform="translate(-308.889 -361.265)" fill="#00455a"/>
      <path id="Trazado_986306" data-name="Trazado 986306" d="M334.753,168.9a.665.665,0,0,1-.665-.665v-9.749a.665.665,0,0,1,1.33,0v9.749A.665.665,0,0,1,334.753,168.9Z" transform="translate(-308.889 -147.612)" fill="#00455a"/>
      <path id="Trazado_986307" data-name="Trazado 986307" d="M150.269,182.574a.665.665,0,0,1-.665-.665V158.484a.665.665,0,0,1,1.33,0V181.91A.665.665,0,0,1,150.269,182.574Z" transform="translate(-139.445 -147.612)" fill="#00455a"/>
      <path id="Trazado_986308" data-name="Trazado 986308" d="M60.013,223.6a11.286,11.286,0,0,1-6.535-2.215l-2.506,1.883a.665.665,0,0,1-.986-.845,8.183,8.183,0,0,0,.563-5.437.665.665,0,0,1,1.04-.71l2.1,1.578c7.117-4.715,13.5.343,13.563.4a.665.665,0,0,1,.012,1.023.4.4,0,0,0-.018.59.665.665,0,0,1,.008.968A11.428,11.428,0,0,1,60.013,223.6Zm-6.543-3.7a.665.665,0,0,1,.4.132c5.819,4.339,10.631,1.3,12.047.194a1.724,1.724,0,0,1,0-1.292,10.179,10.179,0,0,0-11.862.285.663.663,0,0,1-.786-.01l-1.175-.884a9.7,9.7,0,0,1-.162,2.566l1.141-.857a.665.665,0,0,1,.4-.133Z" transform="translate(-47.876 -200.905)" fill="#00455a"/>
      <path id="Trazado_986309" data-name="Trazado 986309" d="M192.673,228.869c-.229,0-.57-.154-1.076-.92-.533-.806-1.519-2.964.834-5.6a.665.665,0,1,1,.992.885,3.747,3.747,0,0,0-1.159,2.728,2.71,2.71,0,0,0,.8,1.686.665.665,0,0,1-.162,1.178.685.685,0,0,1-.226.045Z" transform="translate(-177.403 -206.674)" fill="#00455a"/>
      <path id="Trazado_986310" data-name="Trazado 986310" d="M108.715,200.231a.669.669,0,0,1-.526-.251l-1.6-2.01a.665.665,0,0,1,.424-1.072,7.652,7.652,0,0,1,5.981,1.617.665.665,0,0,1-.454,1.18,9.559,9.559,0,0,0-3.611.5A.665.665,0,0,1,108.715,200.231Zm-.286-2.085.517.65a10.93,10.93,0,0,1,1.32-.3A6.234,6.234,0,0,0,108.429,198.146Z" transform="translate(-99.805 -183.425)" fill="#00455a"/>
      <path id="Trazado_986311" data-name="Trazado 986311" d="M232.936,322.635a8.44,8.44,0,0,1-5.344-2.047.665.665,0,0,1-.01-.95.117.117,0,0,0,.047-.091.094.094,0,0,0-.035-.074.665.665,0,0,1,.011-1.023,8.67,8.67,0,0,1,9.879-.368l1.4-1.058a.665.665,0,0,1,1.04.713,5.7,5.7,0,0,0,.391,3.776.665.665,0,0,1-.986.845l-1.7-1.276A8.256,8.256,0,0,1,232.936,322.635Zm-4.034-2.687a6.633,6.633,0,0,0,8.347-.223.665.665,0,0,1,.8,0l.451.339a7.262,7.262,0,0,1-.058-1.038l-.534.4a.665.665,0,0,1-.786.01,7.143,7.143,0,0,0-8.214-.279,1.435,1.435,0,0,1,0,.787Z" transform="translate(-210.862 -293.518)" fill="#00455a"/>
      <path id="Trazado_986312" data-name="Trazado 986312" d="M258.493,326.436a.679.679,0,0,1-.218-.042.665.665,0,0,1-.181-1.172,1.763,1.763,0,0,0,.507-1.1,2.538,2.538,0,0,0-.789-1.811.665.665,0,1,1,.992-.885c1.773,1.988,1.028,3.632.626,4.247C259.016,326.306,258.7,326.436,258.493,326.436Z" transform="translate(-238.676 -297.676)" fill="#00455a"/>
      <path id="Trazado_986313" data-name="Trazado 986313" d="M285.408,305.811a.689.689,0,0,1-.218-.035,6.651,6.651,0,0,0-2.531-.351A.671.671,0,0,1,282,305a.664.664,0,0,1,.2-.755,5.7,5.7,0,0,1,4.451-1.2.665.665,0,0,1,.424,1.072l-1.152,1.448A.666.666,0,0,1,285.408,305.811Zm-.307-1.452.069.019.026-.032Z" transform="translate(-261.009 -280.935)" fill="#00455a"/>
      <path id="Trazado_986314" data-name="Trazado 986314" d="M156.44,121.663a1.7,1.7,0,0,1-1.2-.508.665.665,0,1,1,.912-.968c.23.216.388.2,1.055-.117a2.05,2.05,0,0,1,2.534.117.665.665,0,0,1-.912.968c-.23-.217-.388-.2-1.055.117A3.19,3.19,0,0,1,156.44,121.663Z" transform="translate(-144.431 -112.581)" fill="#00455a"/>
      <path id="Trazado_986315" data-name="Trazado 986315" d="M259.053,131.876a1.7,1.7,0,0,1-1.2-.508.665.665,0,0,1,.912-.968c.23.216.388.2,1.055-.117a2.05,2.05,0,0,1,2.534.117.665.665,0,0,1-.912.968c-.229-.216-.388-.2-1.055.117A3.191,3.191,0,0,1,259.053,131.876Z" transform="translate(-238.678 -121.961)" fill="#00455a"/>
    </g>
  </g>
</svg>
