<svg xmlns="http://www.w3.org/2000/svg" xmlns:xlink="http://www.w3.org/1999/xlink" width="85" height="137" viewBox="0 0 85 137">
  <defs>
    <clipPath id="clip-path">
      <path id="path4953" d="M0-682.665H48.125v48.125H0Z" transform="translate(0 682.665)"/>
    </clipPath>
  </defs>
  <g id="Grupo_1123284" data-name="Grupo 1123284" transform="translate(-180 -486)">
    <g id="Grupo_1123283" data-name="Grupo 1123283">
      <rect id="Rectángulo_404422" data-name="Rectángulo 404422" width="85" height="137" transform="translate(180 486)" fill="#98d1e2"/>
      <g id="Grupo_1112403" data-name="Grupo 1112403" transform="translate(-828 -6241)">
        <g id="Grupo_1098742" data-name="Grupo 1098742" transform="translate(1019.445 6764.445)">
          <rect id="Rectángulo_400898" data-name="Rectángulo 400898" width="63" height="63" rx="31.5" transform="translate(-0.445 -0.445)" fill="#f8a230" opacity="0.859"/>
          <rect id="Rectángulo_400907" data-name="Rectángulo 400907" width="63" height="63" rx="31.5" transform="translate(-0.446 -0.445)" fill="none"/>
        </g>
        <g id="g4947" transform="translate(1026.438 7455.103)">
          <g id="g4949" transform="translate(0 -682.665)">
            <g id="g4951" clip-path="url(#clip-path)">
              <g id="g4957" transform="translate(15.471 30.609)">
                <path id="path4959" d="M-227.492-87.149s-1.393,4.045-5.31,4.515-10.5-4.755-11.342-6.607a10.219,10.219,0,0,1-.552-4.518Z" transform="translate(244.746 93.758)" fill="#4e5660"/>
              </g>
              <g id="g4961" transform="translate(15.471 6.362)">
                <path id="path4963" d="M-227.492-59.925s-1.393-4.045-5.31-4.515-10.5,4.755-11.342,6.607a10.219,10.219,0,0,0-.552,4.518Z" transform="translate(244.746 64.47)" fill="#4e5660"/>
              </g>
              <g id="g4965" transform="translate(15.471 8.738)">
                <path id="path4967" d="M-106.072-56.172a3.381,3.381,0,0,1-2.792-4.26h0c-2.3,1.5-4.22,3.316-4.651,4.26a10.219,10.219,0,0,0-.552,4.518l8-3.072Z" transform="translate(114.117 60.432)" fill="#414851"/>
              </g>
              <g id="g4969" transform="translate(15.471 30.609)">
                <path id="path4971" d="M-106.072-59.566a3.381,3.381,0,0,0-2.792,4.26h0c-2.3-1.5-4.22-3.316-4.651-4.26a10.219,10.219,0,0,1-.552-4.518l8,3.072Z" transform="translate(114.117 64.084)" fill="#414851"/>
              </g>
              <g id="g4973" transform="translate(3.336 16.403)">
                <path id="path4975" d="M-137.678-65.121A5.553,5.553,0,0,1-143.2-70.06h0A7.9,7.9,0,0,0-148.12-62.4a7.919,7.919,0,0,0,4.935,7.669,5.553,5.553,0,0,1,5.507-4.849h.951l0-5.54Z" transform="translate(148.12 70.06)" fill="#e38d22"/>
              </g>
              <g id="g4977" transform="translate(0.705 14.748)">
                <path id="path4979" d="M-57.9-122.815a10.253,10.253,0,0,1,3.163-7.659,5.611,5.611,0,0,1-.035-.614v-.1a.938.938,0,0,0-1.1-.926c-3.631.666-6.417,4.576-6.417,9.3s2.787,8.633,6.417,9.3a.938.938,0,0,0,1.1-.926h0a5.605,5.605,0,0,1,.046-.7,10.249,10.249,0,0,1-3.174-7.669" transform="translate(62.292 132.13)" fill="#4e5660"/>
              </g>
              <g id="g4981" transform="translate(3.336 23.618)">
                <path id="path4983" d="M-85.532-31.055a10.045,10.045,0,0,1-6.477-2.355c-.006.146-.01.293-.01.444A7.919,7.919,0,0,0-87.084-25.3a5.553,5.553,0,0,1,5.507-4.849h.951l0-2.182a10.042,10.042,0,0,1-4.908,1.273" transform="translate(92.018 33.411)" fill="#dd7f0e"/>
              </g>
              <g id="g4985" transform="translate(0.705 20.987)">
                <path id="path4987" d="M-58.224-50.435a10.135,10.135,0,0,1-4-3.825,11.525,11.525,0,0,0-.413,3.075c0,4.723,2.787,8.633,6.417,9.3a.938.938,0,0,0,1.1-.926h0a5.605,5.605,0,0,1,.046-.7,10.088,10.088,0,0,1-3.15-6.919" transform="translate(62.64 54.26)" fill="#414851"/>
              </g>
              <g id="g4989" transform="translate(9.822 10.903)">
                <path id="path4991" d="M-381.874-14.185l-4.26.587-1.8-1.659c-.114,0-.229,0-.344,0a23.685,23.685,0,0,0-8.865,2.1l-4.141,4.186-3.854.331c-3.38,2.454-5.7,5.011-5.7,6.546s2.318,4.092,5.7,6.546h3.01l4.985,4.518a23.685,23.685,0,0,0,8.865,2.1c.115,0,.23,0,.344,0l1.9-1.454,4.161.382A12.64,12.64,0,0,0-373.239-2.1a12.64,12.64,0,0,0-8.635-12.083" transform="translate(410.836 15.261)" fill="#eea849"/>
              </g>
              <g id="g4993" transform="translate(9.823 12.998)">
                <path id="path4995" d="M-327.006-300.176l4.16.382a13.754,13.754,0,0,0,5.013-3.156,23.368,23.368,0,0,1-20.279-19.992h0l-4.141,4.187-3.854.331h0c-3.38,2.454-5.7,5.011-5.7,6.546s2.318,4.092,5.7,6.546h3.01l4.985,4.518a23.687,23.687,0,0,0,8.865,2.1c.115,0,.23,0,.344,0Z" transform="translate(351.807 322.942)" fill="#e89a35"/>
              </g>
              <g id="g4997" transform="translate(29.279 10.907)">
                <path id="path4999" d="M-45.434,0A26.114,26.114,0,0,0-48.88,13.156a26.114,26.114,0,0,0,3.446,13.156,18.283,18.283,0,0,0,6.06-1.072A19.911,19.911,0,0,1-43.24,13.156,19.911,19.911,0,0,1-39.374,1.072,18.285,18.285,0,0,0-45.434,0" transform="translate(48.88)" fill="#fcf2d0"/>
              </g>
              <g id="g5001" transform="translate(29.314 25.451)">
                <path id="path5003" d="M0,0A25.885,25.885,0,0,0,3.411,11.767a18.285,18.285,0,0,0,6.06-1.072A18.316,18.316,0,0,1,6.593,5.1,23.445,23.445,0,0,1,0,0" fill="#fcf2d0"/>
              </g>
              <g id="g5005" transform="translate(24.61 19.613)">
                <path id="path5007" d="M-93.105-43.5a32.505,32.505,0,0,0-3.163-3.3s-3.9.595-3.9,4.45,3.9,4.45,3.9,4.45a32.505,32.505,0,0,0,3.163-3.3,1.762,1.762,0,0,0,0-2.3" transform="translate(100.166 46.795)" fill="#dd7f0e"/>
              </g>
              <g id="g5009" transform="translate(22.857 19.169)">
                <path id="path5011" d="M-37.18-64.519a4.874,4.874,0,0,1,2.832-4.45,1.662,1.662,0,0,0-.776-.444A4.861,4.861,0,0,0-40-64.519a4.861,4.861,0,0,0,4.876,4.893,1.661,1.661,0,0,0,.776-.444,4.874,4.874,0,0,1-2.832-4.45" transform="translate(40 69.412)" fill="#414851"/>
              </g>
              <g id="g5013" transform="translate(14.733 12.999)">
                <path id="path5015" d="M-74.36-145.879a20.263,20.263,0,0,1,3.143-11.064,41.2,41.2,0,0,0-8,4.518A27.357,27.357,0,0,0-80-145.879a27.357,27.357,0,0,0,.787,6.546,41.2,41.2,0,0,0,8,4.518,20.263,20.263,0,0,1-3.143-11.064" transform="translate(80 156.942)" fill="#fcf2d0"/>
              </g>
              <g id="g5017" transform="translate(37.183 22.388)">
                <path id="path5019" d="M-72.761-28.972a2.527,2.527,0,0,1-2.759,2.2,2.527,2.527,0,0,1-2.759-2.2,2.527,2.527,0,0,1,2.759-2.2,2.527,2.527,0,0,1,2.759,2.2" transform="translate(78.28 31.169)" fill="#fff"/>
              </g>
              <g id="g5021" transform="translate(41.551 21.342)">
                <path id="path5023" d="M0,0V1.128" fill="none" stroke="#000" stroke-linecap="round" stroke-linejoin="round" stroke-miterlimit="10" stroke-width="1.2"/>
              </g>
              <g id="g5025" transform="translate(15.471 30.642)">
                <path id="path5027" d="M-226.956-88.138c-.255.646-1.735,3.983-5.269,4.407-3.917.47-10.5-4.755-11.342-6.607a10.1,10.1,0,0,1-.555-4.484" transform="translate(244.168 94.822)" fill="none" stroke="#000" stroke-linecap="round" stroke-linejoin="round" stroke-miterlimit="10" stroke-width="1.2"/>
              </g>
              <g id="g5029" transform="translate(15.472 6.362)">
                <path id="path5031" d="M-226.953-58.492c-.255-.647-1.735-3.982-5.269-4.406-3.917-.47-10.5,4.755-11.342,6.607a9.982,9.982,0,0,0-.562,4.414" transform="translate(244.166 62.929)" fill="none" stroke="#000" stroke-linecap="round" stroke-linejoin="round" stroke-miterlimit="10" stroke-width="1.2"/>
              </g>
              <g id="g5033" transform="translate(0.705 19.32)">
                <path id="path5035" d="M-13.525,0a11.2,11.2,0,0,0-1.026,4.742c0,4.723,2.787,8.633,6.417,9.3a.938.938,0,0,0,1.1-.926h0a5.555,5.555,0,0,1,3.42-5.128" transform="translate(14.551)" fill="none" stroke="#000" stroke-linecap="round" stroke-linejoin="round" stroke-miterlimit="10" stroke-width="1.2"/>
              </g>
              <g id="g5037" transform="translate(3.29 14.748)">
                <path id="path5039" d="M-109.169-80.933a5.554,5.554,0,0,1-3.345-5.1v-.1a.938.938,0,0,0-1.1-.926,6.939,6.939,0,0,0-3.833,2.207" transform="translate(117.449 87.071)" fill="none" stroke="#000" stroke-linecap="round" stroke-linejoin="round" stroke-miterlimit="10" stroke-width="1.2"/>
              </g>
              <g id="g5041" transform="translate(5.096 16.433)">
                <path id="path5043" d="M-41.416-201.331a10.262,10.262,0,0,1-3.141-7.64,10.267,10.267,0,0,1,3.13-7.63" transform="translate(44.557 216.601)" fill="none" stroke="#000" stroke-linecap="round" stroke-linejoin="round" stroke-miterlimit="10" stroke-width="1.2"/>
              </g>
              <g id="g5045" transform="translate(9.823 10.903)">
                <path id="path5047" d="M-495.734-173.507c0,7.268-5.7,13.159-15.039,13.159s-22.559-9.493-22.559-13.159,13.214-13.159,22.559-13.159S-495.734-180.775-495.734-173.507Z" transform="translate(533.332 186.666)" fill="none" stroke="#000" stroke-linecap="round" stroke-linejoin="round" stroke-miterlimit="10" stroke-width="1.2"/>
              </g>
              <g id="g5049" transform="translate(34.919 12.027)">
                <path id="path5051" d="M-50.819-317.814a19.918,19.918,0,0,1-3.854-12.068,19.929,19.929,0,0,1,3.83-12.036" transform="translate(54.673 341.918)" fill="none" stroke="#000" stroke-linecap="round" stroke-linejoin="round" stroke-miterlimit="10" stroke-width="1.2"/>
              </g>
              <g id="g5053" transform="translate(29.516 27.688)">
                <path id="path5055" d="M0,0A25.5,25.5,0,0,0,3.192,9.5" fill="none" stroke="#000" stroke-linecap="round" stroke-linejoin="round" stroke-miterlimit="10" stroke-width="1.2"/>
              </g>
              <g id="g5057" transform="translate(29.518 10.955)">
                <path id="path5059" d="M-41.914,0a25.5,25.5,0,0,0-3.179,9.466" transform="translate(45.093)" fill="none" stroke="#000" stroke-linecap="round" stroke-linejoin="round" stroke-miterlimit="10" stroke-width="1.2"/>
              </g>
              <g id="g5061" transform="translate(22.857 19.169)">
                <path id="path5063" d="M0-64.519a4.861,4.861,0,0,0,4.876,4.893c.615,0,2.691-2.3,3.939-3.742a1.762,1.762,0,0,0,0-2.3c-1.247-1.447-3.324-3.742-3.939-3.742A4.861,4.861,0,0,0,0-64.519Z" transform="translate(0 69.412)" fill="none" stroke="#000" stroke-linecap="round" stroke-linejoin="round" stroke-miterlimit="10" stroke-width="1.2"/>
              </g>
              <g id="g5065" transform="translate(25.677 19.623)">
                <path id="path5067" d="M-36.829-116.97a4.874,4.874,0,0,1-2.793-4.432,4.874,4.874,0,0,1,2.811-4.44" transform="translate(39.623 125.841)" fill="none" stroke="#000" stroke-linecap="round" stroke-linejoin="round" stroke-miterlimit="10" stroke-width="1.2"/>
              </g>
              <g id="g5069" transform="translate(20.418 13.127)">
                <path id="path5071" d="M0-125.592a20.019,20.019,0,0,1,3.015-9.525" transform="translate(0 135.117)" fill="none" stroke="#000" stroke-linecap="round" stroke-linejoin="round" stroke-miterlimit="10" stroke-width="1.2"/>
              </g>
              <g id="g5073" transform="translate(20.416 25.451)">
                <path id="path5075" d="M-39.77-125.867a20.024,20.024,0,0,1-3.016-9.546" transform="translate(42.787 135.413)" fill="none" stroke="#000" stroke-linecap="round" stroke-linejoin="round" stroke-miterlimit="10" stroke-width="1.2"/>
              </g>
              <g id="g5077" transform="translate(14.734 17.612)">
                <path id="path5079" d="M-10.072,0a27.614,27.614,0,0,0,.007,12.928" transform="translate(10.836)" fill="none" stroke="#000" stroke-linecap="round" stroke-linejoin="round" stroke-miterlimit="10" stroke-width="1.2"/>
              </g>
            </g>
          </g>
        </g>
      </g>
    </g>
  </g>
</svg>
