<svg xmlns="http://www.w3.org/2000/svg" width="85" height="85" viewBox="0 0 85 85">
  <g id="Grupo_1123279" data-name="Grupo 1123279" transform="translate(-600.051 -2192)">
    <rect id="Rectángulo_404808" data-name="Rectángulo 404808" width="85" height="85" rx="10" transform="translate(600.051 2192)" fill="#fcd9ab"/>
    <g id="Grupo_1123280" data-name="Grupo 1123280" transform="translate(615.724 2210.938)">
      <path id="Trazado_992568" data-name="Trazado 992568" d="M49.6,39.393H36.51V35.605a2.514,2.514,0,0,0-.984-1.987,10.934,10.934,0,0,0-2.445-1.312,15.385,15.385,0,0,0-1.943-.631.787.787,0,1,0-.388,1.526,13.829,13.829,0,0,1,1.744.566,9.561,9.561,0,0,1,2.078,1.1.929.929,0,0,1,.364.735v3.788H33.087V36.575a.788.788,0,0,0-.43-.7,12.93,12.93,0,0,0-5.831-1.3A12.929,12.929,0,0,0,21,35.873a.787.787,0,0,0-.43.7v2.819H18.717V35.605a.929.929,0,0,1,.364-.735,9.551,9.551,0,0,1,2.078-1.1,15.341,15.341,0,0,1,5.667-1.047c.335,0,.674.01,1.008.031a.787.787,0,1,0,.1-1.572c-.366-.022-.737-.034-1.1-.034a16.93,16.93,0,0,0-6.255,1.16,10.932,10.932,0,0,0-2.446,1.312,2.513,2.513,0,0,0-.984,1.987v3.788H4.056A4.061,4.061,0,0,0,0,43.449V54.47a4.039,4.039,0,0,0,1.347,3.018V74.215A4.061,4.061,0,0,0,5.4,78.271H36.517a.787.787,0,1,0,0-1.575H5.4a2.484,2.484,0,0,1-2.481-2.481V58.66A26.346,26.346,0,0,0,7.653,61.1a.787.787,0,1,0,.587-1.461A22.168,22.168,0,0,1,2.49,56.4a2.472,2.472,0,0,1-.915-1.925V43.449a2.484,2.484,0,0,1,2.481-2.481H49.6a2.484,2.484,0,0,1,2.481,2.481V54.47a2.472,2.472,0,0,1-.915,1.925,23.117,23.117,0,0,1-6.7,3.6,47.868,47.868,0,0,1-13.791,2.572v-1.8A1.879,1.879,0,0,0,28.8,58.9H24.854a1.879,1.879,0,0,0-1.877,1.877v1.8a51.313,51.313,0,0,1-11.493-1.823.787.787,0,0,0-.439,1.513,52.979,52.979,0,0,0,11.932,1.887v.37a3.849,3.849,0,0,0,7.7,0v-.37c10.649-.555,16.812-3.33,20.055-5.487V74.215A2.484,2.484,0,0,1,48.249,76.7H39.667a.788.788,0,1,0,0,1.575h8.583a4.061,4.061,0,0,0,4.056-4.056V57.489a4.038,4.038,0,0,0,1.347-3.018V43.449A4.06,4.06,0,0,0,49.6,39.393ZM22.14,37.072a12.289,12.289,0,0,1,9.371,0v2.321H22.14V37.072ZM29.1,64.519a2.274,2.274,0,0,1-4.548,0V60.773a.3.3,0,0,1,.3-.3H28.8a.3.3,0,0,1,.3.3Z" transform="translate(0 -31.146)" fill="#008db6" stroke="#008db6" stroke-width="0.5"/>
    </g>
  </g>
</svg>
