<svg xmlns="http://www.w3.org/2000/svg" xmlns:xlink="http://www.w3.org/1999/xlink" width="108" height="108" viewBox="0 0 108 108">
  <defs>
    <filter id="Trazado_896985" x="0" y="0" width="108" height="108" filterUnits="userSpaceOnUse">
      <feOffset dy="3" input="SourceAlpha"/>
      <feGaussianBlur stdDeviation="3" result="blur"/>
      <feFlood flood-opacity="0.161"/>
      <feComposite operator="in" in2="blur"/>
      <feComposite in="SourceGraphic"/>
    </filter>
  </defs>
  <g id="Grupo_1122516" data-name="Grupo 1122516" transform="translate(-326.164 -3854)">
    <g id="Grupo_1107785" data-name="Grupo 1107785" transform="translate(-421.617 27)">
      <g id="Grupo_1098742" data-name="Grupo 1098742" transform="translate(-446.539 3444.258)">
        <g transform="matrix(1, 0, 0, 1, 1194.32, 382.74)" filter="url(#Trazado_896985)">
          <g id="Trazado_896985-2" data-name="Trazado 896985" transform="translate(9 6)" fill="#f1de5f" opacity="0.859">
            <path d="M 44.99993896484375 88.5 C 39.12682723999023 88.5 33.4301872253418 87.35007476806641 28.06826400756836 85.08217620849609 C 22.88850212097168 82.89132690429688 18.23627662658691 79.75461578369141 14.2408390045166 75.75916290283203 C 10.24540138244629 71.76372528076172 7.108676433563232 67.11151123046875 4.917826652526855 61.9317512512207 C 2.649926424026489 56.56982421875 1.500001430511475 50.87317657470703 1.500001430511475 45.00006103515625 C 1.500001430511475 39.12682342529297 2.649926424026489 33.4301872253418 4.917826652526855 28.06826210021973 C 7.108676433563232 22.88850021362305 10.24540138244629 18.23628807067871 14.2408390045166 14.24083709716797 C 18.23628807067871 10.24540042877197 22.88850212097168 7.108675003051758 28.06826400756836 4.917825222015381 C 33.4301872253418 2.649924993515015 39.12682723999023 1.5 44.99993896484375 1.5 C 50.87305068969727 1.5 56.5697021484375 2.649924993515015 61.93162536621094 4.917825222015381 C 67.11138916015625 7.108675003051758 71.76360321044922 10.24540042877197 75.75904083251953 14.24083709716797 C 79.75448608398438 18.23627471923828 82.89120483398438 22.88850021362305 85.08205413818359 28.06826210021973 C 87.34995269775391 33.4301872253418 88.4998779296875 39.12682342529297 88.4998779296875 44.99993896484375 C 88.4998779296875 50.87317657470703 87.34995269775391 56.56982421875 85.08205413818359 61.9317512512207 C 82.89120483398438 67.11151123046875 79.75448608398438 71.76372528076172 75.75904083251953 75.75916290283203 C 71.76360321044922 79.75461578369141 67.11138916015625 82.89132690429688 61.93162536621094 85.08217620849609 C 56.5697021484375 87.35007476806641 50.87305068969727 88.5 44.99993896484375 88.5 Z" stroke="none"/>
            <path d="M 44.99993896484375 3 C 39.32865142822266 3 33.82860946655273 4.110054016113281 28.65258026123047 6.299331665039062 C 23.65162658691406 8.414558410644531 19.15966796875 11.44332885742188 15.30149841308594 15.30149841308594 C 11.44332122802734 19.15966796875 8.41455078125 23.65162658691406 6.299324035644531 28.65258407592773 C 4.110054016113281 33.82861328125 2.999992370605469 39.32865524291992 2.999992370605469 45.00005722045898 C 2.999992370605469 50.67134475708008 4.110054016113281 56.17138671875 6.299324035644531 61.347412109375 C 8.41455078125 66.34837341308594 11.44332122802734 70.84033203125 15.30149841308594 74.69850158691406 C 19.15966796875 78.55667114257812 23.65162658691406 81.58544158935547 28.65258026123047 83.70066833496094 C 33.82860946655273 85.88994598388672 39.32865142822266 87 44.99993896484375 87 C 50.67122650146484 87 56.17126846313477 85.88994598388672 61.34729766845703 83.70066833496094 C 66.34825134277344 81.58544158935547 70.8402099609375 78.55667114257812 74.69837951660156 74.69850158691406 C 78.55654907226562 70.84033203125 81.5853271484375 66.34837341308594 83.70055389404297 61.347412109375 C 85.88982391357422 56.17138671875 86.9998779296875 50.67134475708008 86.9998779296875 44.99994277954102 C 86.9998779296875 39.32865524291992 85.88982391357422 33.82861328125 83.70055389404297 28.65258407592773 C 81.5853271484375 23.65162658691406 78.55654907226562 19.15966796875 74.69837951660156 15.30149841308594 C 70.8402099609375 11.44332885742188 66.34825134277344 8.414558410644531 61.34729766845703 6.299331665039062 C 56.17126846313477 4.110054016113281 50.67122650146484 3 44.99993896484375 3 M 44.99993896484375 0 C 69.85272216796875 0 89.99988555908203 20.14715576171875 89.99988555908203 44.99994277954102 L 89.99988555908203 45.00005722045898 C 89.99988555908203 69.85284423828125 69.85272216796875 90 44.99993896484375 90 C 20.14715576171875 90 -7.62939453125e-06 69.85284423828125 -7.62939453125e-06 45.00005722045898 L -7.62939453125e-06 44.99994277954102 C -7.62939453125e-06 20.14715576171875 20.14715576171875 0 44.99993896484375 0 Z" stroke="none" fill="#fff"/>
          </g>
        </g>
        <g id="Rectángulo_400907" data-name="Rectángulo 400907" transform="translate(1203.32 388.742)" fill="none" stroke="#fff" stroke-width="3">
          <rect width="90" height="90" rx="45" stroke="none"/>
          <rect x="1.5" y="1.5" width="87" height="87" rx="43.5" fill="none"/>
        </g>
      </g>
    </g>
    <g id="Grupo_1122523" data-name="Grupo 1122523" transform="translate(352.297 3877.131)">
      <path id="Trazado_986281" data-name="Trazado 986281" d="M108.995,91.06a17.957,17.957,0,1,0,17.957,17.957A17.977,17.977,0,0,0,108.995,91.06Zm0,32.649a14.692,14.692,0,1,1,14.692-14.692A14.709,14.709,0,0,1,108.995,123.709Z" transform="translate(-81.13 -81.148)" fill="#008db6"/>
      <path id="Trazado_986282" data-name="Trazado 986282" d="M182.84,196.538l-8.64,8.64-5.375-5.375a1.632,1.632,0,0,0-2.309,2.309l6.53,6.53a1.632,1.632,0,0,0,2.308,0l9.795-9.795a1.632,1.632,0,0,0-2.308-2.309Z" transform="translate(-147.968 -174.72)" fill="#008db6"/>
      <path id="Trazado_986283" data-name="Trazado 986283" d="M53.4,16.423l-5.7-3.413-1.279-5.3a4.876,4.876,0,0,0-5.138-3.733l-6.491.5L31.04,1.178a4.877,4.877,0,0,0-6.351,0L20.942,4.484l-6.491-.5A4.875,4.875,0,0,0,9.327,7.656l-1.78,5.672-5.21,3.1A4.877,4.877,0,0,0,.375,22.464L2.6,27.846.375,33.228a4.877,4.877,0,0,0,1.963,6.041L8.029,42.66l1.284,5.317a4.874,4.874,0,0,0,4.751,3.748c.344,0-.042.013,6.811-.512l3.814,3.347a4.877,4.877,0,0,0,6.351,0l3.814-3.347,6.423.5a4.877,4.877,0,0,0,5.138-3.733l1.279-5.3c6.97-4.172,5.492-3.284,5.7-3.413a4.877,4.877,0,0,0,1.962-6.041l-2.221-5.382,2.221-5.382a4.877,4.877,0,0,0-1.963-6.04ZM49.862,28.469l2.478,6a1.626,1.626,0,0,1-.648,2.01L45.43,40.232a1.632,1.632,0,0,0-.748,1.017l-1.439,5.961a1.625,1.625,0,0,1-1.713,1.244L34.42,47.9a1.633,1.633,0,0,0-1.2.4l-4.3,3.775a1.625,1.625,0,0,1-2.1,0l-4.3-3.775a1.632,1.632,0,0,0-1.2-.4l-7.109.55a1.625,1.625,0,0,1-1.713-1.244l-1.445-5.985a1.632,1.632,0,0,0-.751-1.019L4.04,36.482a1.626,1.626,0,0,1-.646-2.009l2.478-6a1.632,1.632,0,0,0,0-1.245l-2.478-6a1.626,1.626,0,0,1,.645-2.008l5.713-3.394a1.632,1.632,0,0,0,.724-.915c2.106-6.713,1.987-6.319,2.011-6.42A1.623,1.623,0,0,1,14.2,7.237l7.179.556a1.633,1.633,0,0,0,1.206-.4l4.23-3.733a1.625,1.625,0,0,1,2.1,0l4.23,3.733a1.633,1.633,0,0,0,1.206.4l7.179-.556a1.626,1.626,0,0,1,1.713,1.244l1.439,5.961a1.633,1.633,0,0,0,.748,1.018l6.263,3.749a1.625,1.625,0,0,1,.648,2.009l-2.478,6A1.633,1.633,0,0,0,49.862,28.469Z" fill="#008db6"/>
    </g>
  </g>
</svg>
