<svg xmlns="http://www.w3.org/2000/svg" width="82" height="82" viewBox="0 0 82 82">
  <g id="Grupo_1123407" data-name="Grupo 1123407" transform="translate(-204.051 -568)">
    <g id="Grupo_1123052" data-name="Grupo 1123052" transform="translate(10 73)">
      <g id="Elipse_11822" data-name="Elipse 11822" transform="translate(205.051 506)" fill="#f8a230" stroke="#fcd9ab" stroke-width="11">
        <circle cx="30" cy="30" r="30" stroke="none"/>
        <circle cx="30" cy="30" r="35.5" fill="none"/>
      </g>
      <g id="layer1" transform="translate(217.228 238.16)">
        <path id="path3974" d="M2.255,280.6a1.738,1.738,0,0,0-1.727,1.728v31.04a1.734,1.734,0,0,0,1.727,1.722h9.2a.575.575,0,0,0,0-1.15h-9.2a.561.561,0,0,1-.577-.573v-31.04a.565.565,0,0,1,.577-.577H20.074v2.876a1.734,1.734,0,0,0,1.727,1.723h2.872v4.6a.575.575,0,0,0,1.151,0v-5.172a.575.575,0,0,0-.17-.408l-4.6-4.6a.574.574,0,0,0-.4-.17Zm18.968,1.966,2.635,2.635H21.8a.562.562,0,0,1-.577-.574ZM7.857,285.2a.575.575,0,1,0,0,1.15H17.2a.575.575,0,1,0,0-1.15Zm-3.3,4.6H21.8a.575.575,0,1,0,0-1.15H4.526a.575.575,0,0,0,.03,1.15Zm0,3.45H6.851a.575.575,0,1,0,0-1.15H4.526a.575.575,0,0,0,.03,1.15Zm4.452,0H20.651a.575.575,0,1,0,0-1.15H8.979a.575.575,0,0,0,.028,1.15Zm16.985,10.645a.575.575,0,1,0-.9.716l5.495,6.856a2.6,2.6,0,1,0,3.681-3.681l-8.163-6.537,1.152-1.152.456.456a.575.575,0,0,0,.811,0l1.728-1.723a.575.575,0,0,0,0-.814l-5.174-5.174a.575.575,0,0,0-.415-.169h0a.574.574,0,0,0-.4.169l-1.723,1.723a.575.575,0,0,0,0,.815l3.9,3.9c-1.465,1.451-2.9,2.9-4.362,4.362L19.451,301l3.329-3.329a.575.575,0,1,0-.813-.813l-3.329,3.329-.457-.457a.585.585,0,0,0-.815,0l-1.722,1.727a.575.575,0,0,0,0,.811l5.172,5.177a.575.575,0,0,0,.815,0l1.722-1.727a.575.575,0,0,0,0-.811l-.456-.456,2.393-2.393,8.262,6.615a1.463,1.463,0,0,1-2.065,2.069Zm-1.318-9.834,4.357,4.362-.912.908c-1.444-1.453-2.9-2.9-4.358-4.357ZM4.556,296.69H19.5a.575.575,0,1,0,.064-1.147.59.59,0,0,0-.064,0H4.526a.574.574,0,0,0,.03,1.145Zm0,2.3a.575.575,0,1,0,0,1.15h4.6a.575.575,0,1,0,0-1.15Zm6.9,0a.575.575,0,1,0,0,1.15h2.3a.575.575,0,1,0,0-1.15Zm6.322,1.965c1.483,1.5,3.061,3.055,4.363,4.357l-.913.913-4.358-4.363ZM4.556,302.441a.575.575,0,1,0,0,1.15h8.623a.575.575,0,1,0,0-1.15Zm0,4.6H7a.575.575,0,1,0,0-1.15H4.526a.575.575,0,0,0,.03,1.15Zm4.6,0h6.9a.575.575,0,1,0,0-1.15H9.124a.575.575,0,0,0,.028,1.15Zm2.876,3.45a.575.575,0,1,0,0-1.15h-7.5a.575.575,0,0,0,.03,1.15Zm2.873-.577v1.728a1.73,1.73,0,0,0-1.722,1.722v1.15a.575.575,0,0,0,.573.573h11.5a.575.575,0,0,0,.577-.573v-1.15A1.735,1.735,0,0,0,24.1,311.64v-1.728a.575.575,0,0,0-.573-.573H15.446a.578.578,0,0,0-.545.573Zm1.15.577h6.9v1.151H21.8a.575.575,0,1,0,0,1.15H24.1a.561.561,0,0,1,.577.573v.573H14.324v-.573a.561.561,0,0,1,.577-.573h4.6a.575.575,0,1,0,0-1.15H16.05Z" transform="translate(0 0)" fill="#008db6"/>
      </g>
    </g>
  </g>
</svg>
