<svg xmlns="http://www.w3.org/2000/svg" xmlns:xlink="http://www.w3.org/1999/xlink" width="108" height="108" viewBox="0 0 108 108">
  <defs>
    <filter id="Trazado_896985" x="0" y="0" width="108" height="108" filterUnits="userSpaceOnUse">
      <feOffset dy="3" input="SourceAlpha"/>
      <feGaussianBlur stdDeviation="3" result="blur"/>
      <feFlood flood-opacity="0.161"/>
      <feComposite operator="in" in2="blur"/>
      <feComposite in="SourceGraphic"/>
    </filter>
  </defs>
  <g id="Grupo_1122520" data-name="Grupo 1122520" transform="translate(-326.164 -3854)">
    <g id="Grupo_1107785" data-name="Grupo 1107785" transform="translate(-421.617 27)">
      <g id="Grupo_1098742" data-name="Grupo 1098742" transform="translate(-446.539 3444.258)">
        <g transform="matrix(1, 0, 0, 1, 1194.32, 382.74)" filter="url(#Trazado_896985)">
          <g id="Trazado_896985-2" data-name="Trazado 896985" transform="translate(9 6)" fill="#f1de5f" opacity="0.859">
            <path d="M 44.99993896484375 88.5 C 39.12682723999023 88.5 33.4301872253418 87.35007476806641 28.06826400756836 85.08217620849609 C 22.88850212097168 82.89132690429688 18.23627662658691 79.75461578369141 14.2408390045166 75.75916290283203 C 10.24540138244629 71.76372528076172 7.108676433563232 67.11151123046875 4.917826652526855 61.9317512512207 C 2.649926424026489 56.56982421875 1.500001430511475 50.87317657470703 1.500001430511475 45.00006103515625 C 1.500001430511475 39.12682342529297 2.649926424026489 33.4301872253418 4.917826652526855 28.06826210021973 C 7.108676433563232 22.88850021362305 10.24540138244629 18.23628807067871 14.2408390045166 14.24083709716797 C 18.23628807067871 10.24540042877197 22.88850212097168 7.108675003051758 28.06826400756836 4.917825222015381 C 33.4301872253418 2.649924993515015 39.12682723999023 1.5 44.99993896484375 1.5 C 50.87305068969727 1.5 56.5697021484375 2.649924993515015 61.93162536621094 4.917825222015381 C 67.11138916015625 7.108675003051758 71.76360321044922 10.24540042877197 75.75904083251953 14.24083709716797 C 79.75448608398438 18.23627471923828 82.89120483398438 22.88850021362305 85.08205413818359 28.06826210021973 C 87.34995269775391 33.4301872253418 88.4998779296875 39.12682342529297 88.4998779296875 44.99993896484375 C 88.4998779296875 50.87317657470703 87.34995269775391 56.56982421875 85.08205413818359 61.9317512512207 C 82.89120483398438 67.11151123046875 79.75448608398438 71.76372528076172 75.75904083251953 75.75916290283203 C 71.76360321044922 79.75461578369141 67.11138916015625 82.89132690429688 61.93162536621094 85.08217620849609 C 56.5697021484375 87.35007476806641 50.87305068969727 88.5 44.99993896484375 88.5 Z" stroke="none"/>
            <path d="M 44.99993896484375 3 C 39.32865142822266 3 33.82860946655273 4.110054016113281 28.65258026123047 6.299331665039062 C 23.65162658691406 8.414558410644531 19.15966796875 11.44332885742188 15.30149841308594 15.30149841308594 C 11.44332122802734 19.15966796875 8.41455078125 23.65162658691406 6.299324035644531 28.65258407592773 C 4.110054016113281 33.82861328125 2.999992370605469 39.32865524291992 2.999992370605469 45.00005722045898 C 2.999992370605469 50.67134475708008 4.110054016113281 56.17138671875 6.299324035644531 61.347412109375 C 8.41455078125 66.34837341308594 11.44332122802734 70.84033203125 15.30149841308594 74.69850158691406 C 19.15966796875 78.55667114257812 23.65162658691406 81.58544158935547 28.65258026123047 83.70066833496094 C 33.82860946655273 85.88994598388672 39.32865142822266 87 44.99993896484375 87 C 50.67122650146484 87 56.17126846313477 85.88994598388672 61.34729766845703 83.70066833496094 C 66.34825134277344 81.58544158935547 70.8402099609375 78.55667114257812 74.69837951660156 74.69850158691406 C 78.55654907226562 70.84033203125 81.5853271484375 66.34837341308594 83.70055389404297 61.347412109375 C 85.88982391357422 56.17138671875 86.9998779296875 50.67134475708008 86.9998779296875 44.99994277954102 C 86.9998779296875 39.32865524291992 85.88982391357422 33.82861328125 83.70055389404297 28.65258407592773 C 81.5853271484375 23.65162658691406 78.55654907226562 19.15966796875 74.69837951660156 15.30149841308594 C 70.8402099609375 11.44332885742188 66.34825134277344 8.414558410644531 61.34729766845703 6.299331665039062 C 56.17126846313477 4.110054016113281 50.67122650146484 3 44.99993896484375 3 M 44.99993896484375 0 C 69.85272216796875 0 89.99988555908203 20.14715576171875 89.99988555908203 44.99994277954102 L 89.99988555908203 45.00005722045898 C 89.99988555908203 69.85284423828125 69.85272216796875 90 44.99993896484375 90 C 20.14715576171875 90 -7.62939453125e-06 69.85284423828125 -7.62939453125e-06 45.00005722045898 L -7.62939453125e-06 44.99994277954102 C -7.62939453125e-06 20.14715576171875 20.14715576171875 0 44.99993896484375 0 Z" stroke="none" fill="#fff"/>
          </g>
        </g>
        <g id="Rectángulo_400907" data-name="Rectángulo 400907" transform="translate(1203.32 388.742)" fill="none" stroke="#fff" stroke-width="3">
          <rect width="90" height="90" rx="45" stroke="none"/>
          <rect x="1.5" y="1.5" width="87" height="87" rx="43.5" fill="none"/>
        </g>
      </g>
    </g>
    <g id="Grupo_1122524" data-name="Grupo 1122524" transform="translate(350.168 3875.5)">
      <path id="Trazado_986284" data-name="Trazado 986284" d="M.9,35.284C-1.869,41.347,2.571,46.791,2.762,47.02a1,1,0,0,0,.768.36h.021c.291-.007,7.018-.229,9.882-5.911C17.546,46.612,24.193,52,34,52c16.729,0,24.388-15.674,25.753-18.815a2.985,2.985,0,0,0,0-2.37c-1.194-2.747-7.2-15.079-19.879-18.13C38.615,10.379,35.637,7,29,7c-3.209,0-5.239.607-6.391,1.912-1.422,1.612-1.147,3.806-.856,6.129l.023.187a29.785,29.785,0,0,0-8.344,7.3c-2.875-5.683-9.59-5.905-9.881-5.912a1.045,1.045,0,0,0-.789.36C2.571,17.209-1.869,22.653.9,28.712A9.533,9.533,0,0,0,3.369,32,9.506,9.506,0,0,0,.9,35.284Zm57.019-3.672a.97.97,0,0,1,0,.776c-.9,2.071-4.723,9.954-12.309,14.44a19.735,19.735,0,0,1-4.317-5.553,14.216,14.216,0,0,0,.675-2.915,3.973,3.973,0,0,0-2.85-4.335A19.475,19.475,0,0,1,39,32a19.946,19.946,0,0,1,6.6-14.835c7.592,4.484,11.418,12.375,12.319,14.447Zm-20.3,4.227c.143,0,.282,0,.417.007a2.011,2.011,0,0,1,1.946,2.268c-.21,1.686-.792,3.981-2.379,5.342s-3.944,1.586-5.641,1.537a2.011,2.011,0,0,1-1.947-2.267c.211-1.687.794-3.984,2.38-5.343a8.112,8.112,0,0,1,5.225-1.544Zm-13.511-25.6C24.832,9.416,26.478,9,29,9c4.209,0,6.676,1.491,8.123,3.19A25.846,25.846,0,0,0,34,12a24.239,24.239,0,0,0-10.329,2.249c-.207-1.71-.309-3.167.438-4.014ZM5.574,32.832a1,1,0,0,0,0-1.664,7.791,7.791,0,0,1-2.855-3.284C.858,23.812,3.152,19.9,4.005,18.66c1.494.168,5.954,1,7.812,5.091a6.19,6.19,0,0,1,.244.61c-.782,1.115-1.446,2.185-1.991,3.146a1,1,0,1,0,1.741.986C14.88,23.08,21.845,14,34,14a22.43,22.43,0,0,1,9.729,2.172A21.942,21.942,0,0,0,37,32c0,.614.036,1.234.09,1.854a9.686,9.686,0,0,0-6,2.011,10.143,10.143,0,0,0-3.062,6.614A4.014,4.014,0,0,0,31.9,46.993c.153,0,.309.007.469.007A10.05,10.05,0,0,0,38.9,44.974a7.376,7.376,0,0,0,1.327-1.513,21.622,21.622,0,0,0,3.511,4.36A22.432,22.432,0,0,1,34,50c-12.155,0-19.12-9.08-22.189-14.493a1,1,0,0,0-1.741.986c.545.961,1.209,2.031,1.991,3.146a6.706,6.706,0,0,1-.251.627C9.957,44.338,5.5,45.173,4.005,45.34,3.151,44.1.859,40.187,2.721,36.112a7.786,7.786,0,0,1,2.853-3.28Z" fill="#008db6" stroke="#008db6" stroke-width="1"/>
      <path id="Trazado_986285" data-name="Trazado 986285" d="M49,33a3,3,0,1,0-3-3A3,3,0,0,0,49,33Zm0-4a1,1,0,1,1-1,1A1,1,0,0,1,49,29Z" fill="#008db6" stroke="#008db6" stroke-width="1"/>
    </g>
  </g>
</svg>
