<svg xmlns="http://www.w3.org/2000/svg" xmlns:xlink="http://www.w3.org/1999/xlink" width="108" height="108" viewBox="0 0 108 108">
  <defs>
    <filter id="Trazado_896985" x="0" y="0" width="108" height="108" filterUnits="userSpaceOnUse">
      <feOffset dy="3" input="SourceAlpha"/>
      <feGaussianBlur stdDeviation="3" result="blur"/>
      <feFlood flood-opacity="0.161"/>
      <feComposite operator="in" in2="blur"/>
      <feComposite in="SourceGraphic"/>
    </filter>
  </defs>
  <g id="Grupo_1122521" data-name="Grupo 1122521" transform="translate(-326.164 -3854)">
    <g id="Grupo_1107785" data-name="Grupo 1107785" transform="translate(-421.617 27)">
      <g id="Grupo_1098742" data-name="Grupo 1098742" transform="translate(-446.539 3444.258)">
        <g transform="matrix(1, 0, 0, 1, 1194.32, 382.74)" filter="url(#Trazado_896985)">
          <g id="Trazado_896985-2" data-name="Trazado 896985" transform="translate(9 6)" fill="#f1de5f" opacity="0.859">
            <path d="M 44.99993896484375 88.5 C 39.12682723999023 88.5 33.4301872253418 87.35007476806641 28.06826400756836 85.08217620849609 C 22.88850212097168 82.89132690429688 18.23627662658691 79.75461578369141 14.2408390045166 75.75916290283203 C 10.24540138244629 71.76372528076172 7.108676433563232 67.11151123046875 4.917826652526855 61.9317512512207 C 2.649926424026489 56.56982421875 1.500001430511475 50.87317657470703 1.500001430511475 45.00006103515625 C 1.500001430511475 39.12682342529297 2.649926424026489 33.4301872253418 4.917826652526855 28.06826210021973 C 7.108676433563232 22.88850021362305 10.24540138244629 18.23628807067871 14.2408390045166 14.24083709716797 C 18.23628807067871 10.24540042877197 22.88850212097168 7.108675003051758 28.06826400756836 4.917825222015381 C 33.4301872253418 2.649924993515015 39.12682723999023 1.5 44.99993896484375 1.5 C 50.87305068969727 1.5 56.5697021484375 2.649924993515015 61.93162536621094 4.917825222015381 C 67.11138916015625 7.108675003051758 71.76360321044922 10.24540042877197 75.75904083251953 14.24083709716797 C 79.75448608398438 18.23627471923828 82.89120483398438 22.88850021362305 85.08205413818359 28.06826210021973 C 87.34995269775391 33.4301872253418 88.4998779296875 39.12682342529297 88.4998779296875 44.99993896484375 C 88.4998779296875 50.87317657470703 87.34995269775391 56.56982421875 85.08205413818359 61.9317512512207 C 82.89120483398438 67.11151123046875 79.75448608398438 71.76372528076172 75.75904083251953 75.75916290283203 C 71.76360321044922 79.75461578369141 67.11138916015625 82.89132690429688 61.93162536621094 85.08217620849609 C 56.5697021484375 87.35007476806641 50.87305068969727 88.5 44.99993896484375 88.5 Z" stroke="none"/>
            <path d="M 44.99993896484375 3 C 39.32865142822266 3 33.82860946655273 4.110054016113281 28.65258026123047 6.299331665039062 C 23.65162658691406 8.414558410644531 19.15966796875 11.44332885742188 15.30149841308594 15.30149841308594 C 11.44332122802734 19.15966796875 8.41455078125 23.65162658691406 6.299324035644531 28.65258407592773 C 4.110054016113281 33.82861328125 2.999992370605469 39.32865524291992 2.999992370605469 45.00005722045898 C 2.999992370605469 50.67134475708008 4.110054016113281 56.17138671875 6.299324035644531 61.347412109375 C 8.41455078125 66.34837341308594 11.44332122802734 70.84033203125 15.30149841308594 74.69850158691406 C 19.15966796875 78.55667114257812 23.65162658691406 81.58544158935547 28.65258026123047 83.70066833496094 C 33.82860946655273 85.88994598388672 39.32865142822266 87 44.99993896484375 87 C 50.67122650146484 87 56.17126846313477 85.88994598388672 61.34729766845703 83.70066833496094 C 66.34825134277344 81.58544158935547 70.8402099609375 78.55667114257812 74.69837951660156 74.69850158691406 C 78.55654907226562 70.84033203125 81.5853271484375 66.34837341308594 83.70055389404297 61.347412109375 C 85.88982391357422 56.17138671875 86.9998779296875 50.67134475708008 86.9998779296875 44.99994277954102 C 86.9998779296875 39.32865524291992 85.88982391357422 33.82861328125 83.70055389404297 28.65258407592773 C 81.5853271484375 23.65162658691406 78.55654907226562 19.15966796875 74.69837951660156 15.30149841308594 C 70.8402099609375 11.44332885742188 66.34825134277344 8.414558410644531 61.34729766845703 6.299331665039062 C 56.17126846313477 4.110054016113281 50.67122650146484 3 44.99993896484375 3 M 44.99993896484375 0 C 69.85272216796875 0 89.99988555908203 20.14715576171875 89.99988555908203 44.99994277954102 L 89.99988555908203 45.00005722045898 C 89.99988555908203 69.85284423828125 69.85272216796875 90 44.99993896484375 90 C 20.14715576171875 90 -7.62939453125e-06 69.85284423828125 -7.62939453125e-06 45.00005722045898 L -7.62939453125e-06 44.99994277954102 C -7.62939453125e-06 20.14715576171875 20.14715576171875 0 44.99993896484375 0 Z" stroke="none" fill="#fff"/>
          </g>
        </g>
        <g id="Rectángulo_400907" data-name="Rectángulo 400907" transform="translate(1203.32 388.742)" fill="none" stroke="#fff" stroke-width="3">
          <rect width="90" height="90" rx="45" stroke="none"/>
          <rect x="1.5" y="1.5" width="87" height="87" rx="43.5" fill="none"/>
        </g>
      </g>
    </g>
    <g id="layer1" transform="translate(354.865 3599.645)">
      <path id="path7325" d="M11.27,280.6a10.728,10.728,0,0,0-6.123,1.92.825.825,0,1,0,.941,1.356,9.071,9.071,0,1,1-2.271,2.27.825.825,0,1,0-1.356-.941,10.729,10.729,0,1,0,8.809-4.6Zm0,3.291a.793.793,0,0,0-.825.825v.949a3.3,3.3,0,0,0,.822,6.486,1.651,1.651,0,1,1-1.644,1.65.825.825,0,1,0-1.65,0,3.306,3.306,0,0,0,2.473,3.185v.94a.825.825,0,1,0,1.651,0v-.941a3.294,3.294,0,0,0-.828-6.484,1.651,1.651,0,1,1,1.651-1.65.826.826,0,0,0,1.652,0,3.311,3.311,0,0,0-2.474-3.183v-.951a.793.793,0,0,0-.825-.825Zm28.057,1.657h4.721c-1.992,2.522-18.282,22.285-40.207,22.285a.825.825,0,1,0,0,1.651c21.944,0,38.14-18.721,41.267-22.606v4.452a.825.825,0,0,0,1.65,0v-6.6a.825.825,0,0,0-.828-.822H39.287a.824.824,0,0,0,.04,1.644ZM1.367,330.113H49.231a.825.825,0,1,0,0-1.651H46.759V307.829a.825.825,0,1,0-1.65,0v20.633H40.155V302.054h4.953v2.473a.825.825,0,1,0,1.65,0v-3.3a.825.825,0,0,0-.828-.822h-6.6a.826.826,0,0,0-.824.822v27.237H35.2V307.829a.825.825,0,0,0-.822-.822H27.733a.83.83,0,0,0-.786.822v20.633h-3.3V314.433a.825.825,0,0,0-.822-.828h-6.6a.825.825,0,0,0-.822.828v14.029h-3.3v-7.426a.825.825,0,0,0-.828-.829h-6.6a.825.825,0,0,0-.828.829v7.426H1.325a.826.826,0,0,0,.042,1.651ZM28.6,308.658h4.953v19.8H28.6Zm-11.55,6.6H22v13.207H17.048Zm-11.557,6.6h4.953v6.6H5.491Z" transform="translate(0 0)" fill="#008db6" stroke="#008db6" stroke-width="1"/>
    </g>
  </g>
</svg>
