<svg xmlns="http://www.w3.org/2000/svg" xmlns:xlink="http://www.w3.org/1999/xlink" width="108" height="108" viewBox="0 0 108 108">
  <defs>
    <filter id="Trazado_896985" x="0" y="0" width="108" height="108" filterUnits="userSpaceOnUse">
      <feOffset dy="3" input="SourceAlpha"/>
      <feGaussianBlur stdDeviation="3" result="blur"/>
      <feFlood flood-opacity="0.161"/>
      <feComposite operator="in" in2="blur"/>
      <feComposite in="SourceGraphic"/>
    </filter>
  </defs>
  <g id="Grupo_1122522" data-name="Grupo 1122522" transform="translate(-326.164 -3854)">
    <g id="Grupo_1107785" data-name="Grupo 1107785" transform="translate(-421.617 27)">
      <g id="Grupo_1098742" data-name="Grupo 1098742" transform="translate(-446.539 3444.258)">
        <g transform="matrix(1, 0, 0, 1, 1194.32, 382.74)" filter="url(#Trazado_896985)">
          <g id="Trazado_896985-2" data-name="Trazado 896985" transform="translate(9 6)" fill="#f1de5f" opacity="0.859">
            <path d="M 44.99993896484375 88.5 C 39.12682723999023 88.5 33.4301872253418 87.35007476806641 28.06826400756836 85.08217620849609 C 22.88850212097168 82.89132690429688 18.23627662658691 79.75461578369141 14.2408390045166 75.75916290283203 C 10.24540138244629 71.76372528076172 7.108676433563232 67.11151123046875 4.917826652526855 61.9317512512207 C 2.649926424026489 56.56982421875 1.500001430511475 50.87317657470703 1.500001430511475 45.00006103515625 C 1.500001430511475 39.12682342529297 2.649926424026489 33.4301872253418 4.917826652526855 28.06826210021973 C 7.108676433563232 22.88850021362305 10.24540138244629 18.23628807067871 14.2408390045166 14.24083709716797 C 18.23628807067871 10.24540042877197 22.88850212097168 7.108675003051758 28.06826400756836 4.917825222015381 C 33.4301872253418 2.649924993515015 39.12682723999023 1.5 44.99993896484375 1.5 C 50.87305068969727 1.5 56.5697021484375 2.649924993515015 61.93162536621094 4.917825222015381 C 67.11138916015625 7.108675003051758 71.76360321044922 10.24540042877197 75.75904083251953 14.24083709716797 C 79.75448608398438 18.23627471923828 82.89120483398438 22.88850021362305 85.08205413818359 28.06826210021973 C 87.34995269775391 33.4301872253418 88.4998779296875 39.12682342529297 88.4998779296875 44.99993896484375 C 88.4998779296875 50.87317657470703 87.34995269775391 56.56982421875 85.08205413818359 61.9317512512207 C 82.89120483398438 67.11151123046875 79.75448608398438 71.76372528076172 75.75904083251953 75.75916290283203 C 71.76360321044922 79.75461578369141 67.11138916015625 82.89132690429688 61.93162536621094 85.08217620849609 C 56.5697021484375 87.35007476806641 50.87305068969727 88.5 44.99993896484375 88.5 Z" stroke="none"/>
            <path d="M 44.99993896484375 3 C 39.32865142822266 3 33.82860946655273 4.110054016113281 28.65258026123047 6.299331665039062 C 23.65162658691406 8.414558410644531 19.15966796875 11.44332885742188 15.30149841308594 15.30149841308594 C 11.44332122802734 19.15966796875 8.41455078125 23.65162658691406 6.299324035644531 28.65258407592773 C 4.110054016113281 33.82861328125 2.999992370605469 39.32865524291992 2.999992370605469 45.00005722045898 C 2.999992370605469 50.67134475708008 4.110054016113281 56.17138671875 6.299324035644531 61.347412109375 C 8.41455078125 66.34837341308594 11.44332122802734 70.84033203125 15.30149841308594 74.69850158691406 C 19.15966796875 78.55667114257812 23.65162658691406 81.58544158935547 28.65258026123047 83.70066833496094 C 33.82860946655273 85.88994598388672 39.32865142822266 87 44.99993896484375 87 C 50.67122650146484 87 56.17126846313477 85.88994598388672 61.34729766845703 83.70066833496094 C 66.34825134277344 81.58544158935547 70.8402099609375 78.55667114257812 74.69837951660156 74.69850158691406 C 78.55654907226562 70.84033203125 81.5853271484375 66.34837341308594 83.70055389404297 61.347412109375 C 85.88982391357422 56.17138671875 86.9998779296875 50.67134475708008 86.9998779296875 44.99994277954102 C 86.9998779296875 39.32865524291992 85.88982391357422 33.82861328125 83.70055389404297 28.65258407592773 C 81.5853271484375 23.65162658691406 78.55654907226562 19.15966796875 74.69837951660156 15.30149841308594 C 70.8402099609375 11.44332885742188 66.34825134277344 8.414558410644531 61.34729766845703 6.299331665039062 C 56.17126846313477 4.110054016113281 50.67122650146484 3 44.99993896484375 3 M 44.99993896484375 0 C 69.85272216796875 0 89.99988555908203 20.14715576171875 89.99988555908203 44.99994277954102 L 89.99988555908203 45.00005722045898 C 89.99988555908203 69.85284423828125 69.85272216796875 90 44.99993896484375 90 C 20.14715576171875 90 -7.62939453125e-06 69.85284423828125 -7.62939453125e-06 45.00005722045898 L -7.62939453125e-06 44.99994277954102 C -7.62939453125e-06 20.14715576171875 20.14715576171875 0 44.99993896484375 0 Z" stroke="none" fill="#fff"/>
          </g>
        </g>
        <g id="Rectángulo_400907" data-name="Rectángulo 400907" transform="translate(1203.32 388.742)" fill="none" stroke="#fff" stroke-width="3">
          <rect width="90" height="90" rx="45" stroke="none"/>
          <rect x="1.5" y="1.5" width="87" height="87" rx="43.5" fill="none"/>
        </g>
      </g>
    </g>
    <g id="Grupo_1122525" data-name="Grupo 1122525" transform="translate(349.866 3845.409)">
      <path id="Trazado_986286" data-name="Trazado 986286" d="M300.731,331.8h3.543a.888.888,0,1,0,0-1.775h-3.543a3.267,3.267,0,0,0-3.044,2.02,3.184,3.184,0,0,0,.628,3.5,7.379,7.379,0,0,0,5.566,2.135.888.888,0,0,0,0-1.775,5.68,5.68,0,0,1-4.285-1.588,1.416,1.416,0,0,1-.277-1.579A1.521,1.521,0,0,1,300.731,331.8Z" transform="translate(-262.22 -261.677)" fill="#008db6"/>
      <path id="Trazado_986287" data-name="Trazado 986287" d="M8.471,50.018A.93.93,0,0,1,9.7,49.676c.771.419,1.618.852,2.529,1.281l-.773,2.31a2.3,2.3,0,0,0,2.368,3.019A18.514,18.514,0,0,0,21.1,54.039c7.729,1.712,17.486.69,23.378-4.537a1.628,1.628,0,0,0,.06-2.377l.668-.546a1.628,1.628,0,0,0,.089-2.442c-2.987-2.832-7.509-4.393-11.579-5.028a15.319,15.319,0,0,0-3.4-4.84,3.853,3.853,0,0,0-5.48.209,6.087,6.087,0,0,1-1.548,1.21,9.505,9.505,0,0,0-4.062,4.06A40.736,40.736,0,0,0,9.677,43.4a.922.922,0,0,1-1.222-.34,11.122,11.122,0,0,0-6.664-4.679A1.415,1.415,0,0,0,.339,40.657a9.19,9.19,0,0,1,0,11.79,1.415,1.415,0,0,0,1.452,2.275,11.114,11.114,0,0,0,6.679-4.7Zm5.2,4.5a.521.521,0,0,1-.533-.687l.717-2.144a43.426,43.426,0,0,0,4.574,1.658A16.41,16.41,0,0,1,13.669,54.518ZM26.137,35.68a2.08,2.08,0,0,1,2.955-.121,13.308,13.308,0,0,1,2.514,3.289,37.54,37.54,0,0,0-9.976.4C23.224,37.337,24.52,37.438,26.137,35.68ZM2.4,52.665a10.922,10.922,0,0,0,0-12.227,8.983,8.983,0,0,1,4.553,3.568,2.715,2.715,0,0,0,3.562.96,36.459,36.459,0,0,1,24.852-3.741,8.513,8.513,0,0,0-1.695,2.928.888.888,0,0,0,1.682.567,6.753,6.753,0,0,1,1.988-2.958,17.858,17.858,0,0,1,6.606,3.549l-.673.549a1.624,1.624,0,0,0-.109,2.427,18.979,18.979,0,0,1-6.189,3.378,6.715,6.715,0,0,1-1.81-3.282.888.888,0,0,0-1.732.391,8.468,8.468,0,0,0,1.66,3.446c-8.436,2.1-16.942.027-24.552-4.1a2.708,2.708,0,0,0-3.578.961A8.975,8.975,0,0,1,2.4,52.665Z" transform="translate(0)" fill="#008db6"/>
      <path id="Trazado_986288" data-name="Trazado 986288" d="M214.649,124.267a.888.888,0,1,0,0-1.775,4.476,4.476,0,0,1-3.376-1.245,1.007,1.007,0,0,1-.193-1.11,1.078,1.078,0,0,1,1-.668h2.889a.888.888,0,0,0,0-1.775H212.08a2.862,2.862,0,0,0-2.633,1.747,2.758,2.758,0,0,0,.545,3.035A6.175,6.175,0,0,0,214.649,124.267Z" transform="translate(-184.454 -74.472)" fill="#008db6"/>
      <path id="Trazado_986289" data-name="Trazado 986289" d="M322.653,130.879h.545a.888.888,0,0,0,0-1.775h-.545a.888.888,0,1,0,0,1.775Z" transform="translate(-283.685 -84.532)" fill="#008db6"/>
      <path id="Trazado_986290" data-name="Trazado 986290" d="M419.993,330.028a2.746,2.746,0,1,0,2.746,2.746A2.75,2.75,0,0,0,419.993,330.028Zm0,3.718a.971.971,0,1,1,.971-.971A.972.972,0,0,1,419.993,333.746Z" transform="translate(-367.867 -261.677)" fill="#008db6"/>
      <path id="Trazado_986291" data-name="Trazado 986291" d="M95.66,239.4c-1.928-1.689-6.21-4.59-13.781-5.749a18.589,18.589,0,0,0-4.17-5.971,4.525,4.525,0,0,0-6.434.247,7.664,7.664,0,0,1-1.95,1.523,11.391,11.391,0,0,0-4.934,4.975c-1.393.335-2.719.721-3.972,1.138a18.562,18.562,0,0,0-5.854-1.516,2.336,2.336,0,0,0-2.407,3.069l.583,1.741-.1.053a1.329,1.329,0,0,1-1.763-.488,13.441,13.441,0,0,0-8.053-5.651,1.534,1.534,0,0,0-1.576,2.466,11.471,11.471,0,0,1,0,14.717,1.534,1.534,0,0,0,1.576,2.466,13.432,13.432,0,0,0,8.072-5.68,1.342,1.342,0,0,1,1.769-.489c.964.523,2.056,1.081,3.253,1.639l-1.005,3a2.616,2.616,0,0,0,2.7,3.439,22.514,22.514,0,0,0,8.914-2.773c1.283.287,2.6.523,3.952.691a.888.888,0,1,0,.219-1.762,49.732,49.732,0,0,1-17.182-5.8,3.119,3.119,0,0,0-4.122,1.109,11.418,11.418,0,0,1-6.3,4.691,13.188,13.188,0,0,0,0-15.788,11.426,11.426,0,0,1,6.283,4.665,3.127,3.127,0,0,0,4.1,1.108c10.362-5.542,21.687-6.718,30.946-4.528a10.282,10.282,0,0,0-.355,13.712A35.96,35.96,0,0,1,75,250.762a.888.888,0,1,0,0,1.775q1.21,0,2.344-.065l1.779,2.676a2.615,2.615,0,0,0,4.369-.016,21.418,21.418,0,0,0,2.035-4.034,26.088,26.088,0,0,0,9.153-4.69,2.072,2.072,0,0,0,1.007-1.764,1.789,1.789,0,0,0-.7-1.348.034.034,0,0,1,.012-.02l.986-.8a1.794,1.794,0,0,0,.658-1.322A2.1,2.1,0,0,0,95.66,239.4ZM56.6,251.455l.95-2.839a53.788,53.788,0,0,0,6.334,2.268,20.527,20.527,0,0,1-6.423,1.677.839.839,0,0,1-.861-1.106ZM54.34,238.041l-.5-1.49a.56.56,0,0,1,.572-.737,16.269,16.269,0,0,1,3.441.681C56.583,237,55.409,237.521,54.34,238.041Zm12.38-4.115c1.937-2.668,3.81-2.569,5.861-4.8a2.752,2.752,0,0,1,3.908-.158,16.6,16.6,0,0,1,3.3,4.416A45.833,45.833,0,0,0,66.719,233.925ZM82,254.166a.84.84,0,0,1-1.4,0l-1.234-1.857a35.917,35.917,0,0,0,4.007-.654A19.252,19.252,0,0,1,82,254.166ZM93.871,241.9a1.785,1.785,0,0,0,.029,2.8.017.017,0,0,1,.009.015c0,.018-.365.322-.379.334a23.4,23.4,0,0,1-7.561,4.041,8.506,8.506,0,0,1,.453-12.6c5.532,1.7,8.447,4.469,8.442,4.588,0,.012-.984.81-.993.818Z" transform="translate(-36.043 -170.36)" fill="#008db6"/>
    </g>
  </g>
</svg>
