<svg xmlns="http://www.w3.org/2000/svg" xmlns:xlink="http://www.w3.org/1999/xlink" width="118" height="118.001" viewBox="0 0 118 118.001">
  <defs>
    <filter id="Trazado_874925" x="0" y="0" width="118" height="118.001" filterUnits="userSpaceOnUse">
      <feOffset dy="3" input="SourceAlpha"/>
      <feGaussianBlur stdDeviation="3" result="blur"/>
      <feFlood flood-opacity="0.161"/>
      <feComposite operator="in" in2="blur"/>
      <feComposite in="SourceGraphic"/>
    </filter>
  </defs>
  <g id="Grupo_1108490" data-name="Grupo 1108490" transform="translate(-791 -2565.29)">
    <g transform="matrix(1, 0, 0, 1, 791, 2565.29)" filter="url(#Trazado_874925)">
      <g id="Trazado_874925-2" data-name="Trazado 874925" transform="translate(9 6)" fill="#cbe7f0" opacity="0.859">
        <path d="M 50.0000114440918 98.50060272216797 C 43.45189666748047 98.50060272216797 37.10044097900391 97.21847534179688 31.12208366394043 94.68984222412109 C 25.3469123840332 92.24716186523438 20.15996932983398 88.74991607666016 15.70532608032227 84.2952880859375 C 11.25068283081055 79.84064483642578 7.753439903259277 74.65370178222656 5.310754299163818 68.87853240966797 C 2.78212571144104 62.90017318725586 1.499997138977051 56.5487174987793 1.499997138977051 50.00058746337891 C 1.499997138977051 43.45190048217773 2.78212571144104 37.10044479370117 5.310754299163818 31.1220874786377 C 7.753439903259277 25.34691619873047 11.25068283081055 20.15997314453125 15.70532608032227 15.70532989501953 C 20.15996932983398 11.25068664550781 25.3469123840332 7.753444194793701 31.12208366394043 5.310758590698242 C 37.10044097900391 2.782130002975464 43.45189666748047 1.500001311302185 50.0000114440918 1.500001311302185 C 56.54812622070312 1.500001311302185 62.89958190917969 2.782130002975464 68.87793731689453 5.310758590698242 C 74.65311431884766 7.753444194793701 79.84005737304688 11.25068664550781 84.29470062255859 15.70532989501953 C 88.74933624267578 20.15997314453125 92.24658203125 25.34691619873047 94.68927001953125 31.1220874786377 C 97.2178955078125 37.10044479370117 98.50002288818359 43.45190048217773 98.50002288818359 50.00001525878906 C 98.50002288818359 56.5487174987793 97.2178955078125 62.90017318725586 94.68927001953125 68.87853240966797 C 92.24658203125 74.65370178222656 88.74933624267578 79.84064483642578 84.29470062255859 84.2952880859375 C 79.84005737304688 88.74991607666016 74.65311431884766 92.24716186523438 68.87793731689453 94.68984222412109 C 62.89958190917969 97.21847534179688 56.54812622070312 98.50060272216797 50.0000114440918 98.50060272216797 Z" stroke="none"/>
        <path d="M 50.0000114440918 2.999992370605469 C 43.65373611450195 2.999992370605469 37.49887466430664 4.242256164550781 31.70641326904297 6.692253112792969 C 26.11002349853516 9.059318542480469 21.08335113525391 12.4486083984375 16.76598358154297 16.76597595214844 C 12.4486083984375 21.08335113525391 9.059318542480469 26.11002349853516 6.6922607421875 31.70640563964844 C 4.242256164550781 37.49887084960938 2.999992370605469 43.65373229980469 2.999992370605469 50.00059509277344 C 2.999992370605469 56.34687042236328 4.242256164550781 62.50173187255859 6.6922607421875 68.294189453125 C 9.059318542480469 73.89056396484375 12.4486083984375 78.91725158691406 16.76598358154297 83.23461151123047 C 21.08335113525391 87.55197906494141 26.11002349853516 90.94126892089844 31.70641326904297 93.30833435058594 C 37.49887466430664 95.75833129882812 43.65373611450195 97.00059509277344 50.0000114440918 97.00059509277344 C 56.34628677368164 97.00059509277344 62.50114822387695 95.75833129882812 68.29360961914062 93.30833435058594 C 73.88999938964844 90.94126892089844 78.91667175292969 87.55197906494141 83.23403930664062 83.23461151123047 C 87.55141448974609 78.91725158691406 90.94070434570312 73.89056396484375 93.30776214599609 68.294189453125 C 95.75776672363281 62.50173187255859 97.00003051757812 56.34687042236328 97.00003051757812 50.00000762939453 C 97.00003051757812 43.65373229980469 95.75776672363281 37.49887084960938 93.30776214599609 31.70640563964844 C 90.94070434570312 26.11002349853516 87.55141448974609 21.08335113525391 83.23403930664062 16.76597595214844 C 78.91667175292969 12.4486083984375 73.88999938964844 9.059318542480469 68.29360961914062 6.692253112792969 C 62.50114822387695 4.242256164550781 56.34628677368164 2.999992370605469 50.0000114440918 2.999992370605469 M 50.0000114440918 -7.62939453125e-06 C 77.6142578125 -7.62939453125e-06 100.0000305175781 22.38576507568359 100.0000305175781 50.00000762939453 L 100.0000305175781 50.00059509277344 C 100.0000305175781 77.61483764648438 77.6142578125 100.0005950927734 50.0000114440918 100.0005950927734 C 22.38576507568359 100.0005950927734 -7.62939453125e-06 77.61483764648438 -7.62939453125e-06 50.00059509277344 L -7.62939453125e-06 50.00000762939453 C -7.62939453125e-06 22.38576507568359 22.38576507568359 -7.62939453125e-06 50.0000114440918 -7.62939453125e-06 Z" stroke="none" fill="#fff"/>
      </g>
    </g>
    <g id="Fill_out_line" data-name="Fill out line" transform="translate(803.405 2574.384)">
      <path id="Trazado_992427" data-name="Trazado 992427" d="M376.318,186.04l-.824.549a10.952,10.952,0,0,0-4.848,9.878L360,184Z" transform="translate(-300.147 -146.293)" fill="#e6e6e6"/>
      <path id="Trazado_992428" data-name="Trazado 992428" d="M68.873,288l-.86,8.323-1.034,9.992-13.871.033h-.024a8.685,8.685,0,0,1-6.14-2.544,8.691,8.691,0,0,0-6.147-2.547H39.3L31.139,313.5a32.841,32.841,0,0,0-7.093-25.44L24,288l13.258,7.139Z" transform="translate(-6.98 -237.035)" fill="#2b7cd4"/>
      <path id="Trazado_992429" data-name="Trazado 992429" d="M160,392l3.06,8.159,9.179-3.06-6.119-5.1Z" transform="translate(-125.643 -327.777)" fill="#ccc"/>
      <path id="Trazado_992430" data-name="Trazado 992430" d="M107.236,63.15v1.015a12.091,12.091,0,0,1-18.082,10.5l-9.6-5.473A46.073,46.073,0,0,1,63.474,53.863q-.639-1-1.224-2.04a46.082,46.082,0,0,1-5.958-21.715c-.009-.347-.011-.695-.011-1.043V28.028l.005-3.7,3.9.005a46.1,46.1,0,0,1,25.63,7.818q1.023.686,2.01,1.428a46.074,46.074,0,0,1,12.35,14.005l5.464,9.566A12.087,12.087,0,0,1,107.236,63.15Z" transform="translate(-35.145 -6.978)" fill="#3ea7ff"/>
      <path id="Trazado_992431" data-name="Trazado 992431" d="M172.715,353.29l-1.034,9.992-13.871.033h-.024a8.685,8.685,0,0,1-6.14-2.544,8.691,8.691,0,0,0-6.147-2.547H144v-2.253Z" transform="translate(-111.682 -294.002)" fill="#e6e6e6"/>
      <path id="Trazado_992432" data-name="Trazado 992432" d="M227.139,364.582h-.162a25.838,25.838,0,0,1-9.93-1.983l-1.1-.46a25.781,25.781,0,0,1-8.383-5.624l18.573-1.735Z" transform="translate(-167.14 -295.302)" fill="#e6e6e6"/>
      <path id="Trazado_992433" data-name="Trazado 992433" d="M103.7,72.716a12.091,12.091,0,0,1-14.54,1.953l-9.6-5.473A46.073,46.073,0,0,1,63.474,53.863q-.639-1-1.224-2.04a46.082,46.082,0,0,1-5.958-21.715c-.009-.347-.011-.695-.011-1.043V28.028l.005-3.7L70.124,34.415q3.339,2.432,6.486,5.092.792.665,1.571,1.349,1.866,1.631,3.66,3.341.742.709,1.472,1.429A116.061,116.061,0,0,1,103.7,72.716Z" transform="translate(-35.145 -6.978)" fill="#e6e6e6"/>
      <circle id="Elipse_11831" data-name="Elipse 11831" cx="1.53" cy="1.53" r="1.53" transform="translate(32.318 22.409)" fill="gray"/>
      <path id="Trazado_992434" data-name="Trazado 992434" d="M237.259,271.461l-4.936.493a6.118,6.118,0,0,1-6.545-4.6l-.608-2.43a8.1,8.1,0,0,0,2.91-1.72Z" transform="translate(-182.505 -215.397)" fill="#b3b3b3"/>
      <path id="Trazado_992435" data-name="Trazado 992435" d="M259.556,388l7.705,8.669V389.53Z" transform="translate(-212.507 -324.287)" fill="#b3b3b3"/>
      <path id="Trazado_992436" data-name="Trazado 992436" d="M36.316,302.4,31.139,313.5a32.809,32.809,0,0,0,.064-8.819q-.161-1.245-.414-2.472a32.553,32.553,0,0,0-1.062-3.906q-.373-1.1-.826-2.18a32.811,32.811,0,0,0-4.854-8.063L24,288l10.5,7.5A5.581,5.581,0,0,1,36.316,302.4Z" transform="translate(-6.98 -237.035)" fill="#e6e6e6"/>
      <path id="Trazado_992437" data-name="Trazado 992437" d="M138.55,61.1A2.55,2.55,0,1,0,136,58.55,2.55,2.55,0,0,0,138.55,61.1Zm0-3.06a.51.51,0,1,1-.51.51A.51.51,0,0,1,138.55,58.04Z" transform="translate(-104.702 -34.611)"/>
      <path id="Trazado_992438" data-name="Trazado 992438" d="M160,122.2A10.21,10.21,0,0,0,170.2,112h-2.04A8.168,8.168,0,0,1,160,120.159Z" transform="translate(-125.643 -83.472)"/>
      <path id="Trazado_992439" data-name="Trazado 992439" d="M207.587,240.314a9.188,9.188,0,0,0,1.519-2.528l-1.894-.758a7.058,7.058,0,0,1-6.585,4.458H200v2.04h.627a9.241,9.241,0,0,0,1.845-.186l.355,1.422a7.184,7.184,0,0,0,6.935,5.407c.232,0,.466-.012.7-.035l4.936-.494a1.02,1.02,0,0,0,.581-1.773Zm2.674,7.791a5.127,5.127,0,0,1-5.454-3.837l-.389-1.557a9.051,9.051,0,0,0,1.68-.993l6.8,6.124Z" transform="translate(-160.543 -192.562)"/>
      <path id="Trazado_992440" data-name="Trazado 992440" d="M77.163,39.512a1.02,1.02,0,0,0-.867-.777l-12.16-1.508A47.139,47.139,0,0,0,25.046,16.338l-3.9-.005h0a1.02,1.02,0,0,0-1.02,1.019l-.006,4.736A47.126,47.126,0,0,0,34.546,56.094l-4.121.93L17.5,50.067a1.02,1.02,0,0,0-1.273,1.544l.046.056a31.9,31.9,0,0,1,6.873,24.65,1.02,1.02,0,0,0,1.858.71l7.856-11.784h.78l2.725,7.488a1.019,1.019,0,0,0,1.278.62l9.144-3.018,4.766-.012,2.435,2.739a1.02,1.02,0,0,0,1.782-.678V70.31L60,70.3h0a13.127,13.127,0,0,0,13.11-13.112V56.172a13.133,13.133,0,0,0-1.606-6.284,9.948,9.948,0,0,1,4.408-8.744l.823-.549A1.02,1.02,0,0,0,77.163,39.512Zm-54.99-16.1a9.055,9.055,0,0,1,6.075,7.3l2.019-.288a11.094,11.094,0,0,0-8.112-9.148l0-2.9,2.884,0a45.163,45.163,0,0,1,22.61,6.112q1.54.9,3,1.907A19.4,19.4,0,0,1,31.3,44.846H28.281l-.038-.064a45.162,45.162,0,0,1-6.07-21.37Zm2.946,43.334,3.721-3.721a4.545,4.545,0,0,1-.428,1.911L25.5,71.178A33.912,33.912,0,0,0,25.119,66.745Zm-.46-2.425q-.333-1.465-.795-2.9l3.23.461Zm-1.577-5.069a33.922,33.922,0,0,0-1.968-4.109L26.931,59.3a4.562,4.562,0,0,1,.684.6ZM35.92,65.535a7.582,7.582,0,0,1,2.367,1.145l-1.818.364Zm1.255,3.448,3.079-.616a9.791,9.791,0,0,0,2.2,1.247L37.947,71.1Zm8.95-.689h-.018a7.722,7.722,0,0,1-5.424-2.246A9.646,9.646,0,0,0,33.817,63.2h-1.5a1.02,1.02,0,0,0-.849.454l-.9,1.351a6.6,6.6,0,0,0-1.252-6.263l.477.257a1.02,1.02,0,0,0,.708.1l5.878-1.327a47.116,47.116,0,0,0,7.527,5.334l2.508,1.43,3.333,3.749ZM53.734,69.7l-4.183-4.706,4.183,1.046ZM71.072,57.187a11.071,11.071,0,0,1-15.3,10.234V65.243A1.02,1.02,0,0,0,55,64.253l-8.159-2.04a1.014,1.014,0,0,0-.407-.015l-1.518-.866A45.164,45.164,0,0,1,29.544,46.885H31.3A21.447,21.447,0,0,0,52.586,27.812a45.167,45.167,0,0,1,11.565,13.3l5.464,9.566a11.09,11.09,0,0,1,1.458,5.491Zm.672-14.819L69.6,40.938l-1.131,1.7,2.223,1.482a12.014,12.014,0,0,0-.946,2.677L65.921,40.1q-.186-.325-.376-.646l7.945.986a11.953,11.953,0,0,0-1.746,1.927Z"/>
    </g>
  </g>
</svg>
