<svg xmlns="http://www.w3.org/2000/svg" xmlns:xlink="http://www.w3.org/1999/xlink" width="118" height="118.001" viewBox="0 0 118 118.001">
  <defs>
    <filter id="Trazado_874925" x="0" y="0" width="118" height="118.001" filterUnits="userSpaceOnUse">
      <feOffset dy="3" input="SourceAlpha"/>
      <feGaussianBlur stdDeviation="3" result="blur"/>
      <feFlood flood-opacity="0.161"/>
      <feComposite operator="in" in2="blur"/>
      <feComposite in="SourceGraphic"/>
    </filter>
  </defs>
  <g id="Grupo_1123250" data-name="Grupo 1123250" transform="translate(-791 -2565.29)">
    <g transform="matrix(1, 0, 0, 1, 791, 2565.29)" filter="url(#Trazado_874925)">
      <g id="Trazado_874925-2" data-name="Trazado 874925" transform="translate(9 6)" fill="#cbe7f0" opacity="0.859">
        <path d="M 50.0000114440918 98.50060272216797 C 43.45189666748047 98.50060272216797 37.10044097900391 97.21847534179688 31.12208366394043 94.68984222412109 C 25.3469123840332 92.24716186523438 20.15996932983398 88.74991607666016 15.70532608032227 84.2952880859375 C 11.25068283081055 79.84064483642578 7.753439903259277 74.65370178222656 5.310754299163818 68.87853240966797 C 2.78212571144104 62.90017318725586 1.499997138977051 56.5487174987793 1.499997138977051 50.00058746337891 C 1.499997138977051 43.45190048217773 2.78212571144104 37.10044479370117 5.310754299163818 31.1220874786377 C 7.753439903259277 25.34691619873047 11.25068283081055 20.15997314453125 15.70532608032227 15.70532989501953 C 20.15996932983398 11.25068664550781 25.3469123840332 7.753444194793701 31.12208366394043 5.310758590698242 C 37.10044097900391 2.782130002975464 43.45189666748047 1.500001311302185 50.0000114440918 1.500001311302185 C 56.54812622070312 1.500001311302185 62.89958190917969 2.782130002975464 68.87793731689453 5.310758590698242 C 74.65311431884766 7.753444194793701 79.84005737304688 11.25068664550781 84.29470062255859 15.70532989501953 C 88.74933624267578 20.15997314453125 92.24658203125 25.34691619873047 94.68927001953125 31.1220874786377 C 97.2178955078125 37.10044479370117 98.50002288818359 43.45190048217773 98.50002288818359 50.00001525878906 C 98.50002288818359 56.5487174987793 97.2178955078125 62.90017318725586 94.68927001953125 68.87853240966797 C 92.24658203125 74.65370178222656 88.74933624267578 79.84064483642578 84.29470062255859 84.2952880859375 C 79.84005737304688 88.74991607666016 74.65311431884766 92.24716186523438 68.87793731689453 94.68984222412109 C 62.89958190917969 97.21847534179688 56.54812622070312 98.50060272216797 50.0000114440918 98.50060272216797 Z" stroke="none"/>
        <path d="M 50.0000114440918 2.999992370605469 C 43.65373611450195 2.999992370605469 37.49887466430664 4.242256164550781 31.70641326904297 6.692253112792969 C 26.11002349853516 9.059318542480469 21.08335113525391 12.4486083984375 16.76598358154297 16.76597595214844 C 12.4486083984375 21.08335113525391 9.059318542480469 26.11002349853516 6.6922607421875 31.70640563964844 C 4.242256164550781 37.49887084960938 2.999992370605469 43.65373229980469 2.999992370605469 50.00059509277344 C 2.999992370605469 56.34687042236328 4.242256164550781 62.50173187255859 6.6922607421875 68.294189453125 C 9.059318542480469 73.89056396484375 12.4486083984375 78.91725158691406 16.76598358154297 83.23461151123047 C 21.08335113525391 87.55197906494141 26.11002349853516 90.94126892089844 31.70641326904297 93.30833435058594 C 37.49887466430664 95.75833129882812 43.65373611450195 97.00059509277344 50.0000114440918 97.00059509277344 C 56.34628677368164 97.00059509277344 62.50114822387695 95.75833129882812 68.29360961914062 93.30833435058594 C 73.88999938964844 90.94126892089844 78.91667175292969 87.55197906494141 83.23403930664062 83.23461151123047 C 87.55141448974609 78.91725158691406 90.94070434570312 73.89056396484375 93.30776214599609 68.294189453125 C 95.75776672363281 62.50173187255859 97.00003051757812 56.34687042236328 97.00003051757812 50.00000762939453 C 97.00003051757812 43.65373229980469 95.75776672363281 37.49887084960938 93.30776214599609 31.70640563964844 C 90.94070434570312 26.11002349853516 87.55141448974609 21.08335113525391 83.23403930664062 16.76597595214844 C 78.91667175292969 12.4486083984375 73.88999938964844 9.059318542480469 68.29360961914062 6.692253112792969 C 62.50114822387695 4.242256164550781 56.34628677368164 2.999992370605469 50.0000114440918 2.999992370605469 M 50.0000114440918 -7.62939453125e-06 C 77.6142578125 -7.62939453125e-06 100.0000305175781 22.38576507568359 100.0000305175781 50.00000762939453 L 100.0000305175781 50.00059509277344 C 100.0000305175781 77.61483764648438 77.6142578125 100.0005950927734 50.0000114440918 100.0005950927734 C 22.38576507568359 100.0005950927734 -7.62939453125e-06 77.61483764648438 -7.62939453125e-06 50.00059509277344 L -7.62939453125e-06 50.00000762939453 C -7.62939453125e-06 22.38576507568359 22.38576507568359 -7.62939453125e-06 50.0000114440918 -7.62939453125e-06 Z" stroke="none" fill="#fff"/>
      </g>
    </g>
    <g id="Grupo_1123254" data-name="Grupo 1123254" transform="translate(819.047 2592.183)">
      <g id="Grupo_1123252" data-name="Grupo 1123252" transform="translate(8.141 6.295)">
        <path id="Trazado_992441" data-name="Trazado 992441" d="M81.442,56.8a4.44,4.44,0,0,0,4.593,1.231,4.44,4.44,0,0,1,5.659,3.267,4.44,4.44,0,0,0,3.362,3.362,4.44,4.44,0,0,1,3.267,5.659,4.44,4.44,0,0,0,1.231,4.593,4.44,4.44,0,0,1,0,6.534,4.44,4.44,0,0,0-1.231,4.593,4.44,4.44,0,0,1-3.267,5.659,4.44,4.44,0,0,0-3.362,3.362,4.44,4.44,0,0,1-5.659,3.267,4.44,4.44,0,0,0-4.593,1.231,4.44,4.44,0,0,1-6.534,0,4.44,4.44,0,0,0-4.593-1.231,4.44,4.44,0,0,1-5.659-3.267,4.44,4.44,0,0,0-3.362-3.362,4.44,4.44,0,0,1-3.267-5.659A4.44,4.44,0,0,0,56.8,81.443a4.44,4.44,0,0,1,0-6.534,4.44,4.44,0,0,0,1.231-4.593,4.44,4.44,0,0,1,3.267-5.659,4.44,4.44,0,0,0,3.362-3.362,4.44,4.44,0,0,1,5.659-3.267A4.44,4.44,0,0,0,74.908,56.8,4.44,4.44,0,0,1,81.442,56.8Z" transform="translate(-55.363 -55.364)" fill="#0593fc"/>
        <g id="Grupo_1123251" data-name="Grupo 1123251" transform="translate(31.003 2.461)">
          <path id="Trazado_992442" data-name="Trazado 992442" d="M341.234,94.095A4.44,4.44,0,0,1,340,89.5a4.44,4.44,0,0,0-3.267-5.659,4.44,4.44,0,0,1-3.362-3.362,4.439,4.439,0,0,0-5.327-3.355,4.438,4.438,0,0,1,3.33,3.355,4.44,4.44,0,0,0,3.362,3.362,4.44,4.44,0,0,1,3.267,5.659,4.44,4.44,0,0,0,1.231,4.593,4.44,4.44,0,0,1,0,6.534,4.44,4.44,0,0,0-1.231,4.593,4.44,4.44,0,0,1-3.267,5.659,4.44,4.44,0,0,0-3.362,3.362,4.438,4.438,0,0,1-3.33,3.355,4.439,4.439,0,0,0,5.327-3.355,4.44,4.44,0,0,1,3.362-3.362A4.44,4.44,0,0,0,340,105.222a4.44,4.44,0,0,1,1.231-4.593A4.44,4.44,0,0,0,341.234,94.095Z" transform="translate(-328.047 -77.011)" fill="#0181fa"/>
        </g>
        <circle id="Elipse_11832" data-name="Elipse 11832" cx="17.799" cy="17.799" r="17.799" transform="translate(5.013 5.013)" fill="#ffd15b"/>
        <path id="Trazado_992443" data-name="Trazado 992443" d="M245.559,99.453q-.676,0-1.34.05a17.8,17.8,0,0,1,0,35.5q.663.049,1.34.05a17.8,17.8,0,0,0,0-35.6Z" transform="translate(-222.747 -94.44)" fill="#feb137"/>
        <path id="Trazado_992444" data-name="Trazado 992444" d="M161.325,187.63l-3.636-3.636a1.789,1.789,0,0,0-2.53,0l-2.374,2.374a1.789,1.789,0,0,0,0,2.53l6.083,6.083a3.228,3.228,0,0,0,4.565,0l11.894-11.894a1.789,1.789,0,0,0,0-2.53l-2.2-2.2a1.789,1.789,0,0,0-2.53,0Z" transform="translate(-141.243 -163.909)" fill="#eaf6ff"/>
        <path id="Trazado_992445" data-name="Trazado 992445" d="M225.122,180.555l-2.2-2.2a1.789,1.789,0,0,0-2.53,0l-.54.54a1.785,1.785,0,0,1,1.454.513l1.136,1.145a1.789,1.789,0,0,1,0,2.53L211.62,193.941a3.227,3.227,0,0,1-3.176.82l.219.219a3.228,3.228,0,0,0,4.565,0l11.894-11.894a1.789,1.789,0,0,0,0-2.53Z" transform="translate(-191.039 -163.908)" fill="#c8effe"/>
      </g>
      <g id="Grupo_1123253" data-name="Grupo 1123253" transform="translate(2.083 0.001)">
        <path id="Trazado_992446" data-name="Trazado 992446" d="M112.715,92.95a.853.853,0,1,0-.191,1.695,16.946,16.946,0,1,1-3.859,0,.853.853,0,0,0-.193-1.695,18.652,18.652,0,1,0,4.243,0Z" transform="translate(-81.736 -82.377)"/>
        <path id="Trazado_992447" data-name="Trazado 992447" d="M92.49,79.133a3.6,3.6,0,0,1,.994-3.711,5.293,5.293,0,0,0,0-7.789,3.6,3.6,0,0,1-.994-3.711A5.293,5.293,0,0,0,88.6,57.177a3.6,3.6,0,0,1-2.717-2.717,5.293,5.293,0,0,0-6.745-3.894,3.6,3.6,0,0,1-3.711-.994,5.293,5.293,0,0,0-7.789,0,3.6,3.6,0,0,1-3.711.994,5.293,5.293,0,0,0-6.745,3.894,3.6,3.6,0,0,1-2.717,2.717,5.293,5.293,0,0,0-3.894,6.745,3.6,3.6,0,0,1-.994,3.711,5.293,5.293,0,0,0,0,7.789,3.6,3.6,0,0,1,.994,3.711,5.293,5.293,0,0,0,3.894,6.745A3.6,3.6,0,0,1,57.177,88.6a5.293,5.293,0,0,0,6.745,3.894,3.6,3.6,0,0,1,3.711.994,5.293,5.293,0,0,0,7.789,0,3.6,3.6,0,0,1,3.711-.994A5.293,5.293,0,0,0,85.879,88.6,3.6,3.6,0,0,1,88.6,85.879a5.293,5.293,0,0,0,3.894-6.745Zm-1.628.509a3.587,3.587,0,0,1-2.64,4.572,5.315,5.315,0,0,0-4.008,4.008,3.587,3.587,0,0,1-4.572,2.64,5.314,5.314,0,0,0-5.475,1.467,3.587,3.587,0,0,1-5.279,0,5.317,5.317,0,0,0-3.906-1.706,5.256,5.256,0,0,0-1.569.239,3.587,3.587,0,0,1-4.572-2.64,5.315,5.315,0,0,0-4.008-4.008,3.587,3.587,0,0,1-2.64-4.572,5.315,5.315,0,0,0-1.467-5.475,3.587,3.587,0,0,1,0-5.279,5.315,5.315,0,0,0,1.467-5.475,3.587,3.587,0,0,1,2.64-4.572,5.315,5.315,0,0,0,4.008-4.008,3.587,3.587,0,0,1,4.572-2.64,5.315,5.315,0,0,0,5.475-1.467,3.587,3.587,0,0,1,5.279,0,5.315,5.315,0,0,0,5.475,1.467,3.587,3.587,0,0,1,4.572,2.64,5.315,5.315,0,0,0,4.008,4.008,3.587,3.587,0,0,1,2.64,4.572,5.315,5.315,0,0,0,1.467,5.475,3.587,3.587,0,0,1,0,5.279,5.315,5.315,0,0,0-1.467,5.475Z" transform="translate(-42.658 -42.421)"/>
        <path id="Trazado_992448" data-name="Trazado 992448" d="M433.04,8.841a.85.85,0,0,0,.6-.25l7.132-7.132A.853.853,0,0,0,439.57.253l-7.132,7.132a.853.853,0,0,0,.6,1.456Z" transform="translate(-383.286 -0.003)"/>
        <path id="Trazado_992449" data-name="Trazado 992449" d="M468.793,100.1a.852.852,0,0,0-1.047-.6l-3.566.973a.853.853,0,1,0,.449,1.645l3.566-.973A.852.852,0,0,0,468.793,100.1Z" transform="translate(-411.084 -88.166)"/>
        <path id="Trazado_992450" data-name="Trazado 992450" d="M386.844,5.242a.852.852,0,0,0,1.047-.6l.973-3.566a.853.853,0,1,0-1.645-.449L386.246,4.2A.852.852,0,0,0,386.844,5.242Z" transform="translate(-342.541 -0.001)"/>
        <path id="Trazado_992451" data-name="Trazado 992451" d="M9.468,8.591a.853.853,0,0,0,1.206-1.206L3.542.253A.853.853,0,0,0,2.336,1.459Z" transform="translate(-2.086 -0.003)"/>
        <path id="Trazado_992452" data-name="Trazado 992452" d="M6.728,100.479l-3.566-.973a.853.853,0,0,0-.449,1.645l3.566.973a.853.853,0,1,0,.449-1.645Z" transform="translate(-2.085 -88.166)"/>
        <path id="Trazado_992453" data-name="Trazado 992453" d="M103.233,4.645a.853.853,0,0,0,1.645-.449L103.906.63a.853.853,0,0,0-1.645.449Z" transform="translate(-90.844 -0.001)"/>
        <path id="Trazado_992454" data-name="Trazado 992454" d="M433.643,434.521a.853.853,0,0,0-1.206,1.206l7.132,7.132a.853.853,0,0,0,1.206-1.206Z" transform="translate(-383.286 -384.896)"/>
        <path id="Trazado_992455" data-name="Trazado 992455" d="M468.2,389.972,464.629,389a.853.853,0,0,0-.449,1.645l3.566.973a.853.853,0,1,0,.449-1.645Z" transform="translate(-411.084 -344.744)"/>
        <path id="Trazado_992456" data-name="Trazado 992456" d="M387.891,466.263a.853.853,0,1,0-1.645.449l.973,3.566a.853.853,0,0,0,1.645-.449Z" transform="translate(-342.541 -412.693)"/>
        <path id="Trazado_992457" data-name="Trazado 992457" d="M9.468,434.521l-7.132,7.132a.853.853,0,1,0,1.206,1.206l7.132-7.132a.853.853,0,0,0-1.206-1.206Z" transform="translate(-2.086 -384.896)"/>
        <path id="Trazado_992458" data-name="Trazado 992458" d="M6.278,389l-3.566.973a.853.853,0,1,0,.449,1.645l3.566-.973A.853.853,0,1,0,6.278,389Z" transform="translate(-2.083 -344.743)"/>
        <path id="Trazado_992459" data-name="Trazado 992459" d="M104.28,465.665a.853.853,0,0,0-1.047.6l-.973,3.566a.853.853,0,1,0,1.645.449l.973-3.566A.853.853,0,0,0,104.28,465.665Z" transform="translate(-90.843 -412.693)"/>
        <path id="Trazado_992460" data-name="Trazado 992460" d="M161.079,182.841a.853.853,0,0,0,1.206,1.206l7-7a2.642,2.642,0,0,0,0-3.736l-2.2-2.2a2.645,2.645,0,0,0-3.736,0l-8.67,8.67-3.033-3.033a2.642,2.642,0,0,0-3.736,0l-2.374,2.374a2.642,2.642,0,0,0,0,3.736l6.083,6.083a4.085,4.085,0,0,0,5.771,0l2.1-2.1a.853.853,0,0,0-1.206-1.206l-2.1,2.1a2.378,2.378,0,0,1-3.359,0l-6.083-6.083a.936.936,0,0,1,0-1.324l2.374-2.374a.936.936,0,0,1,1.324,0l3.636,3.636a.853.853,0,0,0,1.206,0l9.273-9.273a.937.937,0,0,1,1.324,0l2.2,2.2a.936.936,0,0,1,0,1.324Z" transform="translate(-128.538 -150.975)"/>
      </g>
    </g>
  </g>
</svg>
