<svg xmlns="http://www.w3.org/2000/svg" width="100" height="100" viewBox="0 0 100 100">
  <g id="Grupo_1112412" data-name="Grupo 1112412" transform="translate(-600.051 -1307)">
    <path id="Rectángulo_404443" data-name="Rectángulo 404443" d="M10,0h90a0,0,0,0,1,0,0V100a0,0,0,0,1,0,0H10A10,10,0,0,1,0,90V10A10,10,0,0,1,10,0Z" transform="translate(600.051 1307)" fill="#f0e077"/>
    <g id="healthcare_x2C__medical_x2C__protection_1_" transform="translate(614.102 1322.38)">
      <g id="XMLID_451_" transform="translate(1 2)">
        <g id="XMLID_493_">
          <g id="XMLID_513_" transform="translate(52.416 26.698)">
            <path id="Trazado_979270" data-name="Trazado 979270" d="M24.66,34.539a1.166,1.166,0,0,1-.93-1.866A21.943,21.943,0,0,0,28.165,19.38a22.26,22.26,0,0,0-.464-4.52,1.165,1.165,0,1,1,2.281-.473,24.571,24.571,0,0,1,.513,4.993,24.272,24.272,0,0,1-4.9,14.7,1.165,1.165,0,0,1-.932.464Z" transform="translate(-23.496 -13.459)" fill="#008db6"/>
          </g>
          <g id="XMLID_511_" transform="translate(10.485 17.513)">
            <path id="Trazado_979271" data-name="Trazado 979271" d="M7.168,30.644a1.169,1.169,0,0,1-1.139-.925,24.939,24.939,0,0,1-.529-5.1A24.249,24.249,0,0,1,10.36,9.986a1.165,1.165,0,1,1,1.866,1.4,21.929,21.929,0,0,0-4.4,13.241,22.4,22.4,0,0,0,.48,4.616,1.164,1.164,0,0,1-.9,1.379,1.086,1.086,0,0,1-.242.026Z" transform="translate(-5.5 -9.516)" fill="#008db6"/>
          </g>
          <g id="XMLID_508_" transform="translate(23.3 20.97)">
            <path id="Trazado_979272" data-name="Trazado 979272" d="M26.145,34.3h-6.99a1.165,1.165,0,0,1-1.165-1.165V27.31H12.165A1.165,1.165,0,0,1,11,26.145v-6.99a1.165,1.165,0,0,1,1.165-1.165H17.99V12.165A1.165,1.165,0,0,1,19.155,11h6.99a1.165,1.165,0,0,1,1.165,1.165V17.99h5.825A1.165,1.165,0,0,1,34.3,19.155v6.99a1.165,1.165,0,0,1-1.165,1.165H27.31v5.825A1.165,1.165,0,0,1,26.145,34.3ZM20.32,31.97h4.66V26.145a1.165,1.165,0,0,1,1.165-1.165H31.97V20.32H26.145a1.165,1.165,0,0,1-1.165-1.165V13.33H20.32v5.825a1.165,1.165,0,0,1-1.165,1.165H13.33v4.66h5.825a1.165,1.165,0,0,1,1.165,1.165Z" transform="translate(-11 -11)" fill="#008db6"/>
          </g>
          <g id="XMLID_501_" transform="translate(0 40.9)">
            <g id="XMLID_506_" transform="translate(0 12.601)">
              <path id="Trazado_979273" data-name="Trazado 979273" d="M40.938,36.7H28.727a15.291,15.291,0,0,1-6.608-1.51l-8.162-3.966A15.19,15.19,0,0,0,7.34,29.71H2.165a1.165,1.165,0,1,1,0-2.33H7.34a17.5,17.5,0,0,1,7.631,1.747l8.16,3.963a12.991,12.991,0,0,0,5.6,1.279H40.7l10.175-4.2a3.058,3.058,0,0,0-.31-1.766c-.683-1.174-2.26-1.212-3.455-1.037a25.579,25.579,0,0,0-4.436,1.177l-.48.161a1.165,1.165,0,0,1-.734-2.211l.471-.156a27.413,27.413,0,0,1,4.835-1.272c4.8-.7,6,2.3,6.263,3.236.426,1.54.072,3.467-1.258,4.024L41.381,36.616A1.245,1.245,0,0,1,40.938,36.7Z" transform="translate(-1 -24.962)" fill="#008db6"/>
            </g>
            <g id="XMLID_504_" transform="translate(0 0)">
              <path id="Trazado_979274" data-name="Trazado 979274" d="M25.779,27.3a1.168,1.168,0,0,1-1.058-.673c-2.283-4.914-8.215-5.618-12.626-3.789a1.178,1.178,0,0,1-.447.089H2.165a1.165,1.165,0,1,1,0-2.33h9.257c6.307-2.5,12.9-.354,15.415,5.049a1.168,1.168,0,0,1-.566,1.549,1.228,1.228,0,0,1-.492.1Z" transform="translate(-1 -19.554)" fill="#008db6"/>
            </g>
            <g id="XMLID_502_" transform="translate(21.316 5.419)">
              <path id="Trazado_979275" data-name="Trazado 979275" d="M24.654,35.262a1.175,1.175,0,0,1-.445-.089L10.867,29.635a1.166,1.166,0,1,1,.895-2.153l12.169,5.051c.51-2.4-.8-4.271-3.926-5.564l-6.857-2.847a1.166,1.166,0,0,1,.895-2.153L20.9,24.816c4.8,1.99,6.564,5.534,4.832,9.721a1.157,1.157,0,0,1-.631.631,1.1,1.1,0,0,1-.445.093Z" transform="translate(-10.149 -21.88)" fill="#008db6"/>
            </g>
          </g>
          <g id="XMLID_494_" transform="translate(17.695)">
            <g id="XMLID_499_">
              <path id="Trazado_979276" data-name="Trazado 979276" d="M13.665,13.741c-3.665,0-4.667-2.5-4.9-3.341-.426-1.54-.072-3.467,1.258-4.024L20.418,2.086A1.2,1.2,0,0,1,20.86,2H33.069a15.291,15.291,0,0,1,6.608,1.51l8.162,3.966A15.207,15.207,0,0,0,54.458,8.99h5.175a1.165,1.165,0,1,1,0,2.33H54.458a17.5,17.5,0,0,1-7.631-1.747l-8.16-3.961a12.96,12.96,0,0,0-5.6-1.281H21.093l-10.177,4.2a3.058,3.058,0,0,0,.31,1.766c.685,1.174,2.258,1.212,3.455,1.037a25.579,25.579,0,0,0,4.436-1.177l.48-.161a1.165,1.165,0,1,1,.734,2.211l-.471.156a27.413,27.413,0,0,1-4.835,1.272,9.041,9.041,0,0,1-1.361.107Z" transform="translate(-8.595 -2)" fill="#008db6"/>
            </g>
            <g id="XMLID_497_" transform="translate(26.258 16.593)">
              <path id="Trazado_979277" data-name="Trazado 979277" d="M30.1,16.865a10.847,10.847,0,0,1-10.131-6.086A1.166,1.166,0,0,1,22.089,9.8c2.281,4.912,8.211,5.613,12.626,3.789a1.222,1.222,0,0,1,.447-.086h9.483a1.165,1.165,0,1,1,0,2.33H35.388A14.368,14.368,0,0,1,30.1,16.865Z" transform="translate(-19.864 -9.122)" fill="#008db6"/>
            </g>
            <g id="XMLID_495_" transform="translate(14.656 5.543)">
              <path id="Trazado_979278" data-name="Trazado 979278" d="M27.67,17.755a1.169,1.169,0,0,1-.447-.089l-6.855-2.847c-4.8-1.99-6.564-5.534-4.832-9.721a1.157,1.157,0,0,1,.631-.631,1.172,1.172,0,0,1,.892,0L30.4,10.006a1.166,1.166,0,0,1-.895,2.153L17.336,7.107c-.51,2.4.8,4.271,3.926,5.564l6.857,2.847a1.162,1.162,0,0,1-.45,2.237Z" transform="translate(-14.885 -4.379)" fill="#008db6"/>
            </g>
          </g>
        </g>
        <g id="XMLID_491_" transform="translate(48.964 48.969)">
          <path id="Trazado_979279" data-name="Trazado 979279" d="M23.18,25.389a1.164,1.164,0,0,1-.825-1.987,1.27,1.27,0,0,1,1.729-.082,1.073,1.073,0,0,1,.082,1.566L24,25.049A1.161,1.161,0,0,1,23.18,25.389Z" transform="translate(-22.015 -23.017)" fill="#008db6"/>
        </g>
        <g id="XMLID_484_" transform="translate(18.674 13.898)">
          <path id="Trazado_979280" data-name="Trazado 979280" d="M10.18,10.458a1.165,1.165,0,0,1-.818-1.994L9.528,8.3A1.165,1.165,0,0,1,11.163,9.96L11,10.123A1.159,1.159,0,0,1,10.18,10.458Z" transform="translate(-9.015 -7.965)" fill="#008db6"/>
        </g>
      </g>
    </g>
  </g>
</svg>
