<svg xmlns="http://www.w3.org/2000/svg" width="140" height="83.597" viewBox="0 0 140 83.597">
  <g id="Grupo_1112406" data-name="Grupo 1112406" transform="translate(-517.051 -706)">
    <rect id="Rectángulo_404429" data-name="Rectángulo 404429" width="140" height="73" rx="10" transform="translate(517.051 711)" fill="#fcd9ab"/>
    <g id="Grupo_1112405" data-name="Grupo 1112405" transform="translate(547.001 705.543)">
      <path id="Trazado_978472" data-name="Trazado 978472" d="M241.826,95.741a1.417,1.417,0,1,1-1.417-1.417A1.417,1.417,0,0,1,241.826,95.741Zm0,0" transform="translate(-199.31 -78.281)" fill="#f8a230"/>
      <path id="Trazado_978473" data-name="Trazado 978473" d="M52.321,45.8a2.409,2.409,0,0,0,2.89-.3c3.243-2.267,5.1-2.657,6.877-1.417a21.949,21.949,0,0,0,7.24,2.722,3.8,3.8,0,0,0,.078,2.986,3.491,3.491,0,0,0,3.412,1.633,7.175,7.175,0,0,0,5.091-2.243,6.369,6.369,0,0,1,4.827-2.007c6.3,0,10.861-5.979,11.052-6.234V40.93a1.439,1.439,0,0,0,.218-.458c.012-.042.016-.085.024-.129a1.614,1.614,0,0,0-.161-.973v-.012c-.189-.316-4.735-7.772-11.133-7.772-2.39,0-3.453-1.227-4.684-2.65s-2.613-3.018-5.234-3.018a3.491,3.491,0,0,0-3.412,1.634,4,4,0,0,0,.034,3.3,29.918,29.918,0,0,0-7.488,4.356c-1.7,1.531-3.368,1.071-6.606-1.842a2.316,2.316,0,0,0-2.808-.615c-.5.283-2.011,1.123-.992,7.3-.462,2.149-.663,4.783.775,5.751Zm11.526-8.488a32.142,32.142,0,0,1,8.05-4.4,1.417,1.417,0,0,0,.68-2.113,3.72,3.72,0,0,1-.694-1.885,1.641,1.641,0,0,1,.935-.162c1.267,0,1.931.7,3.093,2.039a8.321,8.321,0,0,0,6.825,3.629c3.734,0,6.905,3.841,8.143,5.568-1.3,1.417-4.425,4.35-8.143,4.35a9.12,9.12,0,0,0-6.683,2.7,4.475,4.475,0,0,1-3.235,1.551,2.176,2.176,0,0,1-.913-.134,3.45,3.45,0,0,1,.676-1.913,1.417,1.417,0,0,0-.969-2.188,23.3,23.3,0,0,1-7.9-2.593c-3.761-2.631-7.566-.347-9.669,1.1a13.432,13.432,0,0,1,.322-2.46,1.5,1.5,0,0,0,0-.333,1.382,1.382,0,0,0,0-.22V39.84A22.228,22.228,0,0,1,54.044,36c2.1,1.817,6.026,4.71,9.8,1.311Zm0,0" transform="translate(-42.699 -21.211)" fill="#f8a230"/>
      <path id="Trazado_978474" data-name="Trazado 978474" d="M444.494,215.206a1.417,1.417,0,1,1-1.417-1.417A1.417,1.417,0,0,1,444.494,215.206Zm0,0" transform="translate(-368.327 -177.91)" fill="#f8a230"/>
      <path id="Trazado_978475" data-name="Trazado 978475" d="M258.012,152.833a2.318,2.318,0,0,0-2.808-.615c-.5.283-2.011,1.124-.992,7.3-.458,2.149-.659,4.783.78,5.751a2.409,2.409,0,0,0,2.889-.3c3.243-2.267,5.1-2.657,6.877-1.417A21.962,21.962,0,0,0,272,166.27a3.8,3.8,0,0,0,.078,2.986,3.49,3.49,0,0,0,3.407,1.634,7.178,7.178,0,0,0,5.091-2.243,6.369,6.369,0,0,1,4.828-2.008c6.3,0,10.861-5.979,11.052-6.234V160.4a1.428,1.428,0,0,0,.218-.457c.011-.043.016-.086.024-.129a1.62,1.62,0,0,0-.161-.974v-.011c-.19-.317-4.735-7.772-11.133-7.772-2.39,0-3.453-1.227-4.684-2.65s-2.613-3.018-5.234-3.018a3.492,3.492,0,0,0-3.412,1.634,4.007,4.007,0,0,0,.034,3.3,29.959,29.959,0,0,0-7.488,4.355c-1.7,1.533-3.369,1.071-6.605-1.842Zm8.5,3.947a32.147,32.147,0,0,1,8.052-4.4,1.416,1.416,0,0,0,.68-2.113,3.724,3.724,0,0,1-.694-1.886,1.641,1.641,0,0,1,.932-.161c1.267,0,1.932.7,3.093,2.039a8.324,8.324,0,0,0,6.825,3.628c3.733,0,6.9,3.842,8.143,5.569-1.3,1.417-4.425,4.35-8.143,4.35a9.117,9.117,0,0,0-6.683,2.7,4.475,4.475,0,0,1-3.235,1.551,2.174,2.174,0,0,1-.912-.135,3.452,3.452,0,0,1,.676-1.913,1.417,1.417,0,0,0-.97-2.188,23.3,23.3,0,0,1-7.9-2.593c-3.759-2.631-7.565-.347-9.669,1.1a13.43,13.43,0,0,1,.322-2.46,1.426,1.426,0,0,0,.007-.333,1.242,1.242,0,0,0,0-.22v-.008a22.278,22.278,0,0,1-.329-3.834c2.1,1.815,6.022,4.707,9.8,1.309Zm0,0" transform="translate(-211.714 -120.84)" fill="#f8a230"/>
      <path id="Trazado_978476" data-name="Trazado 978476" d="M395.427,377.342a1.417,1.417,0,1,1-1.417-1.417A1.417,1.417,0,0,1,395.427,377.342Zm0,0" transform="translate(-327.407 -313.125)" fill="#f8a230"/>
      <path id="Trazado_978477" data-name="Trazado 978477" d="M208.946,314.966a2.319,2.319,0,0,0-2.808-.615c-.5.283-2.011,1.124-.992,7.3-.458,2.149-.659,4.784.779,5.751a2.41,2.41,0,0,0,2.89-.3c3.242-2.267,5.1-2.657,6.877-1.417a21.962,21.962,0,0,0,7.24,2.722,3.8,3.8,0,0,0,.078,2.986,3.49,3.49,0,0,0,3.407,1.634,7.178,7.178,0,0,0,5.091-2.243,6.369,6.369,0,0,1,4.828-2.008c6.3,0,10.861-5.979,11.052-6.234v-.008a1.418,1.418,0,0,0,.219-.457c.011-.043.016-.085.024-.129a1.621,1.621,0,0,0-.161-.974v-.011c-.19-.316-4.735-7.772-11.133-7.772-2.39,0-3.453-1.227-4.684-2.65s-2.613-3.018-5.234-3.018a3.492,3.492,0,0,0-3.412,1.634,4.007,4.007,0,0,0,.034,3.3,29.959,29.959,0,0,0-7.488,4.355c-1.7,1.533-3.373,1.072-6.605-1.842Zm16.55-.455a1.417,1.417,0,0,0,.68-2.112,3.716,3.716,0,0,1-.694-1.886,1.645,1.645,0,0,1,.935-.161c1.267,0,1.932.7,3.093,2.039a8.326,8.326,0,0,0,6.825,3.629c3.733,0,6.9,3.841,8.143,5.568-1.3,1.417-4.425,4.35-8.143,4.35a9.119,9.119,0,0,0-6.683,2.7,4.475,4.475,0,0,1-3.235,1.551,2.174,2.174,0,0,1-.912-.135,3.452,3.452,0,0,1,.676-1.913,1.417,1.417,0,0,0-.97-2.188,23.317,23.317,0,0,1-7.9-2.592c-3.759-2.633-7.567-.346-9.669,1.1a13.437,13.437,0,0,1,.322-2.46,1.464,1.464,0,0,0,.007-.333,1.24,1.24,0,0,0,0-.219v-.009a22.285,22.285,0,0,1-.329-3.835c2.093,1.822,6.024,4.708,9.8,1.311a32.134,32.134,0,0,1,8.052-4.4Zm0,0" transform="translate(-170.795 -256.052)" fill="#f8a230"/>
      <path id="Trazado_978478" data-name="Trazado 978478" d="M190.626,274.941a1.417,1.417,0,1,1-1.417-1.417A1.417,1.417,0,0,1,190.626,274.941Zm0,0" transform="translate(-156.612 -227.726)" fill="#f8a230"/>
      <path id="Trazado_978479" data-name="Trazado 978479" d="M1.12,225a2.409,2.409,0,0,0,2.889-.3c3.242-2.267,5.1-2.657,6.878-1.417A21.943,21.943,0,0,0,18.127,226a3.8,3.8,0,0,0,.078,2.986,3.492,3.492,0,0,0,3.412,1.634,7.181,7.181,0,0,0,5.091-2.244,6.369,6.369,0,0,1,4.827-2.007c6.341,0,10.555-6.025,10.732-6.282q.1-.232.2-.464a3.49,3.49,0,0,0,.027-.54,1.405,1.405,0,0,0-.088-.283,1.38,1.38,0,0,0-.064-.2c-.176-.315-4.374-7.814-10.806-7.814-2.39,0-3.453-1.227-4.684-2.65s-2.613-3.018-5.234-3.018a3.492,3.492,0,0,0-3.412,1.634,4,4,0,0,0,.034,3.3,29.931,29.931,0,0,0-7.489,4.355c-1.7,1.531-3.369,1.071-6.605-1.842a2.314,2.314,0,0,0-2.808-.615c-.5.283-2.011,1.123-.992,7.3-.462,2.149-.663,4.783.775,5.751Zm11.526-8.489a32.142,32.142,0,0,1,8.05-4.4,1.417,1.417,0,0,0,.68-2.112,3.718,3.718,0,0,1-.694-1.886,1.641,1.641,0,0,1,.935-.162c1.267,0,1.931.7,3.093,2.039a8.324,8.324,0,0,0,6.825,3.628c3.738,0,6.715,3.881,7.836,5.573-1.176,1.39-4.109,4.346-7.836,4.346a9.119,9.119,0,0,0-6.683,2.7,4.473,4.473,0,0,1-3.235,1.551,2.165,2.165,0,0,1-.913-.134,3.45,3.45,0,0,1,.676-1.913,1.417,1.417,0,0,0-.969-2.188,23.3,23.3,0,0,1-7.9-2.593c-3.759-2.631-7.567-.347-9.669,1.1a13.432,13.432,0,0,1,.322-2.46,1.427,1.427,0,0,0,0-.333,1.245,1.245,0,0,0,0-.22v-.008a22.357,22.357,0,0,1-.322-3.836c2.1,1.817,6.025,4.71,9.8,1.311Zm0,0" transform="translate(0 -170.656)" fill="#f8a230"/>
      <path id="Trazado_978480" data-name="Trazado 978480" d="M398.262,11.792a5.668,5.668,0,1,0-5.668-5.668A5.667,5.667,0,0,0,398.262,11.792Zm0-8.5a2.834,2.834,0,1,1-2.834,2.834,2.834,2.834,0,0,1,2.834-2.834Zm0,0" transform="translate(-327.407 0)" fill="#f8a230"/>
      <path id="Trazado_978481" data-name="Trazado 978481" d="M337.11,60.158a4.251,4.251,0,1,0-4.251-4.251A4.251,4.251,0,0,0,337.11,60.158Zm0-5.668a1.417,1.417,0,1,1-1.417,1.417A1.417,1.417,0,0,1,337.11,54.49Zm0,0" transform="translate(-277.591 -42.698)" fill="#f8a230"/>
      <path id="Trazado_978482" data-name="Trazado 978482" d="M393.962,105.715a1.762,1.762,0,0,0,.268-.029.863.863,0,0,0,.271-.085.81.81,0,0,0,.241-.128,1.492,1.492,0,0,0,.213-.17,1.417,1.417,0,0,0,0-2.012,1.493,1.493,0,0,0-.213-.17.81.81,0,0,0-.241-.128.88.88,0,0,0-.271-.085,1.467,1.467,0,0,0-1.275.383,1.417,1.417,0,0,0,1.007,2.423Zm0,0" transform="translate(-327.358 -85.421)" fill="#f8a230"/>
      <path id="Trazado_978483" data-name="Trazado 978483" d="M83.594,395.792a5.668,5.668,0,1,0-5.668-5.668A5.668,5.668,0,0,0,83.594,395.792Zm0-8.5a2.834,2.834,0,1,1-2.834,2.834A2.834,2.834,0,0,1,83.594,387.291Zm0,0" transform="translate(-64.988 -320.24)" fill="#f8a230"/>
      <path id="Trazado_978484" data-name="Trazado 978484" d="M26.7,439.907a4.252,4.252,0,1,0-1.245,3.006A4.251,4.251,0,0,0,26.7,439.907Zm-5.668,0a1.417,1.417,0,1,1,1.417,1.417A1.417,1.417,0,0,1,21.029,439.907Zm0,0" transform="translate(-15.175 -362.938)" fill="#f8a230"/>
      <path id="Trazado_978485" data-name="Trazado 978485" d="M78.331,489.3a1.487,1.487,0,0,0,1.006.411,1.781,1.781,0,0,0,.268-.029.865.865,0,0,0,.27-.085.8.8,0,0,0,.241-.128,1.488,1.488,0,0,0,.213-.17,1.417,1.417,0,0,0,0-2.012,1.488,1.488,0,0,0-.213-.17.8.8,0,0,0-.241-.128.881.881,0,0,0-.27-.085,1.467,1.467,0,0,0-1.275.383,1.437,1.437,0,0,0,0,2.012Zm0,0" transform="translate(-64.982 -405.66)" fill="#f8a230"/>
    </g>
  </g>
</svg>
