<svg xmlns="http://www.w3.org/2000/svg" width="100" height="100" viewBox="0 0 100 100">
  <g id="Grupo_1112413" data-name="Grupo 1112413" transform="translate(-1020.051 -1307)">
    <path id="Rectángulo_404441" data-name="Rectángulo 404441" d="M10,0h90a0,0,0,0,1,0,0V100a0,0,0,0,1,0,0H10A10,10,0,0,1,0,90V10A10,10,0,0,1,10,0Z" transform="translate(1020.051 1307)" fill="#f0e077"/>
    <g id="Grupo_1112435" data-name="Grupo 1112435" transform="translate(1019.392 1324.205)">
      <path id="Trazado_979281" data-name="Trazado 979281" d="M37.325,353.937c-.818.071-1.6.177-2.346.308l-3.348-1.415a.976.976,0,0,0-.76,1.8l.911.385a23.931,23.931,0,0,0-5.973,2.748,5.881,5.881,0,0,0-2.836-3.773,2.013,2.013,0,0,0-3.013,1.749v7.575a2.007,2.007,0,0,0,3.013,1.749,5.882,5.882,0,0,0,2.836-3.774,23.986,23.986,0,0,0,5.977,2.749l-1.226.519a.975.975,0,1,0,.761,1.8L34.98,364.8c.747.131,1.528.237,2.346.308.5.043.971.064,1.419.064,5,.072,7.942-2.847,8.2-5.771-.008-.062-.881-6.225-9.621-5.465ZM22,363.369a.046.046,0,0,1-.055,0,.059.059,0,0,1-.034-.058v-7.575a.059.059,0,0,1,.034-.057.06.06,0,0,1,.03-.01.048.048,0,0,1,.025.008,4.614,4.614,0,0,1,0,7.693Zm15.5-.2a23.431,23.431,0,0,1-10.808-3.644,19.86,19.86,0,0,1,2.1-1.211,24.216,24.216,0,0,1,8.712-2.429c6.177-.537,7.317,2.893,7.491,3.642C44.811,360.272,43.671,363.7,37.494,363.165Z" transform="translate(0 -306.875)" fill="#008db6"/>
      <path id="Trazado_979282" data-name="Trazado 979282" d="M20.969,71.514a1.986,1.986,0,0,0,2,0,5.882,5.882,0,0,0,2.836-3.774,23.99,23.99,0,0,0,5.977,2.749l-1.226.519a.975.975,0,1,0,.761,1.8l3.659-1.549c.747.131,1.528.237,2.346.308.5.043.971.064,1.419.064,3.551,0,5.541-1.275,6.611-2.42a5.344,5.344,0,0,0,1.59-3.351c-.008-.062-.88-6.225-9.621-5.465-.818.071-1.6.177-2.346.308l-3.348-1.415a.975.975,0,0,0-.76,1.8l.911.385a23.931,23.931,0,0,0-5.973,2.748,5.881,5.881,0,0,0-2.836-3.773,2.013,2.013,0,0,0-3.013,1.749v7.575A2,2,0,0,0,20.969,71.514Zm7.814-6.747A24.217,24.217,0,0,1,37.5,62.337c6.177-.538,7.317,2.893,7.491,3.642-.174.75-1.314,4.18-7.491,3.642a23.43,23.43,0,0,1-10.808-3.644,19.855,19.855,0,0,1,2.1-1.211Zm-6.871-2.574a.059.059,0,0,1,.034-.057.06.06,0,0,1,.03-.01.049.049,0,0,1,.025.008,4.614,4.614,0,0,1,0,7.693.046.046,0,0,1-.055,0,.059.059,0,0,1-.034-.058Z" transform="translate(-0.001 -51.508)" fill="#008db6"/>
      <path id="Trazado_979283" data-name="Trazado 979283" d="M285.557,12.3a2.056,2.056,0,0,0,2,0A5.881,5.881,0,0,0,290.4,8.53a24.127,24.127,0,0,0,5.979,2.751l-1.229.52a.975.975,0,1,0,.761,1.8l3.659-1.55c.747.131,1.528.237,2.345.308.5.043.972.064,1.419.064,3.551,0,5.541-1.275,6.611-2.42a5.346,5.346,0,0,0,1.59-3.351c-.008-.062-.88-6.225-9.621-5.465-.818.071-1.6.177-2.345.309L296.22.077a.976.976,0,0,0-.76,1.8l.918.388a25.189,25.189,0,0,0-3.954,1.587A22.286,22.286,0,0,0,290.4,5.011a5.882,5.882,0,0,0-2.837-3.777,2.013,2.013,0,0,0-3.013,1.749v7.575a2,2,0,0,0,1.008,1.747Zm7.814-6.747a24.215,24.215,0,0,1,8.713-2.429c6.177-.537,7.316,2.893,7.491,3.642-.174.75-1.315,4.18-7.491,3.642a23.43,23.43,0,0,1-10.808-3.644A19.865,19.865,0,0,1,293.371,5.557ZM286.5,2.983a.059.059,0,0,1,.034-.058.06.06,0,0,1,.03-.01.048.048,0,0,1,.025.008,4.118,4.118,0,0,1,2.066,3.846,4.118,4.118,0,0,1-2.066,3.846.046.046,0,0,1-.055,0,.059.059,0,0,1-.034-.057V2.983Z" transform="translate(-230.177)" fill="#008db6"/>
      <path id="Trazado_979284" data-name="Trazado 979284" d="M310.291,410.805c-.938-1.184-2.78-2.632-6.227-2.807a.975.975,0,0,0-.1,1.948c4.543.23,5.456,3.033,5.607,3.683-.174.748-1.312,4.181-7.491,3.643a23.431,23.431,0,0,1-10.806-3.643,22.909,22.909,0,0,1,8.357-3.308.976.976,0,0,0,.2-1.858l-3.611-1.527a.976.976,0,0,0-.76,1.8l.916.387a25.048,25.048,0,0,0-4.661,1.962c-.463.255-.9.519-1.316.788a5.882,5.882,0,0,0-2.837-3.778,2.013,2.013,0,0,0-3.013,1.749v7.575a2.007,2.007,0,0,0,3.013,1.749,5.881,5.881,0,0,0,2.837-3.777,24.124,24.124,0,0,0,5.979,2.751l-1.229.52a.975.975,0,1,0,.761,1.8l3.659-1.55c.747.131,1.528.237,2.345.309q.752.065,1.452.065c4.852.165,8.022-3.006,8.168-5.781A5.944,5.944,0,0,0,310.291,410.805Zm-23.7,6.673a.046.046,0,0,1-.055,0,.059.059,0,0,1-.034-.057v-7.575a.059.059,0,0,1,.034-.057.06.06,0,0,1,.03-.01.048.048,0,0,1,.025.008,4.111,4.111,0,0,1,2.065,3.817c0,.011,0,.023,0,.034A4.116,4.116,0,0,1,286.586,417.478Z" transform="translate(-230.175 -353.946)" fill="#008db6"/>
      <path id="Trazado_979285" data-name="Trazado 979285" d="M98.529,213.689a36.635,36.635,0,0,0,3.878.024c7.718-.481,10.074-3.342,10.86-5.662-.559-4.093-6.217-5.849-10.841-6.046a36.2,36.2,0,0,0-3.9.024,62.337,62.337,0,0,0-7.45.872.975.975,0,0,0,.345,1.92,60.376,60.376,0,0,1,7.215-.844c.811-.046,1.6-.066,2.344-.062a14.608,14.608,0,0,0-.6,2.968h-5.3a.975.975,0,1,0,0,1.951h5.263a11.223,11.223,0,0,0,.568,2.968c-.727,0-1.485-.017-2.269-.061a56.108,56.108,0,0,1-14.379-2.649c-1.345-.447-2.432-.879-3.245-1.232A43.3,43.3,0,0,1,87.03,205.8a.975.975,0,1,0-.5-1.885,43.368,43.368,0,0,0-7,2.474c-.733-2.376-3.288-4.123-7.26-4.891a1.478,1.478,0,0,0-1.537,2.233l2.571,4.13-2.571,4.13a1.479,1.479,0,0,0,1.537,2.233c3.973-.769,6.528-2.515,7.26-4.892a39.16,39.16,0,0,0,4.12,1.614c1.284.427,2.561.79,3.811,1.1l-1.706,2.263a1.636,1.636,0,0,0,1.3,2.624h.068l2.125-.087a4.975,4.975,0,0,0,3.829-2.04l1.107-1.512C95.806,213.495,97.279,213.617,98.529,213.689Zm12.756-5.831c-1.3,2.7-5.3,3.645-8.322,3.864a11.119,11.119,0,0,1,.055-7.722c2.582.151,7.044,1.132,8.267,3.859Zm-38.3,4.2,2.291-3.68a.976.976,0,0,0,0-1.031l-2.295-3.686c4.317,1.129,4.812,3.28,4.812,4.2C77.793,210.329,74.965,211.522,72.985,212.054ZM91.5,213.647a3.034,3.034,0,0,1-2.335,1.244l-1.46.06,1.836-2.435c.839.174,1.659.324,2.454.454Z" transform="translate(-43.971 -175.267)" fill="#008db6"/>
      <path id="Trazado_979286" data-name="Trazado 979286" d="M428.3,141.286a3.528,3.528,0,1,0-3.528,3.528A3.532,3.532,0,0,0,428.3,141.286Zm-3.528,1.577a1.577,1.577,0,1,1,1.577-1.577A1.578,1.578,0,0,1,424.771,142.862Z" transform="translate(-349.093 -119.841)" fill="#008db6"/>
      <circle id="Elipse_11812" data-name="Elipse 11812" cx="0.975" cy="0.975" r="0.975" transform="translate(40.006 51.105)" fill="#008db6"/>
      <circle id="Elipse_11813" data-name="Elipse 11813" cx="0.975" cy="0.975" r="0.975" transform="translate(49.661 51.673)" fill="#008db6"/>
      <circle id="Elipse_11814" data-name="Elipse 11814" cx="0.975" cy="0.975" r="0.975" transform="translate(74.418 58.142)" fill="#008db6"/>
      <circle id="Elipse_11815" data-name="Elipse 11815" cx="0.975" cy="0.975" r="0.975" transform="translate(74.323 32.957)" fill="#008db6"/>
      <circle id="Elipse_11816" data-name="Elipse 11816" cx="0.975" cy="0.975" r="0.975" transform="translate(78.438 26.851)" fill="#008db6"/>
      <circle id="Elipse_11817" data-name="Elipse 11817" cx="0.975" cy="0.975" r="0.975" transform="translate(61.213 31.616)" fill="#008db6"/>
      <circle id="Elipse_11818" data-name="Elipse 11818" cx="0.975" cy="0.975" r="0.975" transform="translate(40.006 12.928)" fill="#008db6"/>
      <circle id="Elipse_11819" data-name="Elipse 11819" cx="0.975" cy="0.975" r="0.975" transform="translate(47.354 8.665)" fill="#008db6"/>
      <circle id="Elipse_11820" data-name="Elipse 11820" cx="0.975" cy="0.975" r="0.975" transform="translate(44.019 5.227)" fill="#008db6"/>
      <circle id="Elipse_11821" data-name="Elipse 11821" cx="0.975" cy="0.975" r="0.975" transform="translate(74.418 5.227)" fill="#008db6"/>
    </g>
  </g>
</svg>
