<svg xmlns="http://www.w3.org/2000/svg" width="190" height="69" viewBox="0 0 190 69">
  <g id="Grupo_1112436" data-name="Grupo 1112436" transform="translate(-1230.051 -1034)">
    <rect id="Rectángulo_404432" data-name="Rectángulo 404432" width="190" height="69" rx="10" transform="translate(1230.051 1034)" fill="#f9f2c8"/>
    <g id="Page-1" transform="translate(1361.051 1045.668)">
      <g id="_049---Group-Of-Virus_" data-name="049---Group-Of-Virus&apos;" transform="translate(0 0)">
        <g id="Icons" transform="translate(3.805 3.805)">
          <circle id="Oval" cx="9" cy="9" r="9" transform="translate(20.195 -0.141)" fill="#a3c300"/>
          <path id="Shape" d="M37.642,0A9.108,9.108,0,0,0,36.5.076a9.124,9.124,0,0,1,0,18.107A9.133,9.133,0,1,0,37.642,0Z" transform="translate(-8.721 0)" fill="#8fab00"/>
          <ellipse id="Oval-2" data-name="Oval" cx="1.5" cy="2" rx="1.5" ry="2" transform="translate(24.195 4.859)" fill="#008900"/>
          <circle id="Oval-3" data-name="Oval" cx="2.5" cy="2.5" r="2.5" transform="translate(29.195 8.859)" fill="#008900"/>
          <ellipse id="Oval-4" data-name="Oval" cx="9" cy="9.5" rx="9" ry="9.5" transform="translate(0.195 14.859)" fill="#ffdb00"/>
          <path id="Shape-2" data-name="Shape" d="M11.642,20a9.108,9.108,0,0,0-1.142.076,9.124,9.124,0,0,1,0,18.107A9.133,9.133,0,1,0,11.642,20Z" transform="translate(-2.509 -4.778)" fill="#fdc008"/>
          <circle id="Oval-5" data-name="Oval" cx="1.5" cy="1.5" r="1.5" transform="translate(4.195 20.859)" fill="#ff9701"/>
          <ellipse id="Oval-6" data-name="Oval" cx="2" cy="2.5" rx="2" ry="2.5" transform="translate(10.195 23.859)" fill="#ff9701"/>
          <circle id="Oval-7" data-name="Oval" cx="7" cy="7" r="7" transform="translate(25.195 24.859)" fill="#9c27af"/>
          <path id="Shape-3" data-name="Shape" d="M41.642,33a6.884,6.884,0,0,0-1.142.1,6.841,6.841,0,0,1,0,13.494A6.85,6.85,0,1,0,41.642,33Z" transform="translate(-9.677 -7.885)" fill="#6a1b99"/>
        </g>
        <g id="Icons_copy">
          <path id="Shape-4" data-name="Shape" d="M51.115,12.177H48.793a9.8,9.8,0,0,0-.942-3.505l2.013-1.163A.761.761,0,1,0,49.1,6.19L47.1,7.35a9.978,9.978,0,0,0-2.569-2.569l1.159-2.008a.761.761,0,1,0-1.318-.761L43.2,4.025A9.788,9.788,0,0,0,39.7,3.083V.761a.761.761,0,1,0-1.522,0V3.083a9.788,9.788,0,0,0-3.505.942L33.509,2.012a.761.761,0,1,0-1.318.761L33.35,4.782A9.978,9.978,0,0,0,30.781,7.35L28.773,6.19a.761.761,0,1,0-.761,1.318l2.013,1.163a9.8,9.8,0,0,0-.942,3.505H26.761a.761.761,0,0,0,0,1.522h2.322a9.8,9.8,0,0,0,.942,3.505l-2.013,1.163a.761.761,0,1,0,.761,1.318l2.008-1.16a9.978,9.978,0,0,0,2.569,2.569L32.19,23.1a.761.761,0,1,0,1.318.761l1.163-2.013a9.788,9.788,0,0,0,3.505.942v2.322a.761.761,0,1,0,1.522,0V22.793a9.788,9.788,0,0,0,3.505-.942l1.163,2.013a.761.761,0,1,0,1.318-.761l-1.159-2.008A9.978,9.978,0,0,0,47.1,18.526l2.008,1.16a.761.761,0,1,0,.761-1.318L47.851,17.2a9.8,9.8,0,0,0,.942-3.505h2.322a.761.761,0,0,0,0-1.522ZM38.938,21.31a8.372,8.372,0,1,1,8.372-8.372A8.372,8.372,0,0,1,38.938,21.31Z" transform="translate(-6.212 0)"/>
          <path id="Shape-5" data-name="Shape" d="M38.283,11a2.283,2.283,0,1,0,2.283,2.283A2.283,2.283,0,0,0,38.283,11Zm0,3.044a.761.761,0,1,1,.761-.761A.761.761,0,0,1,38.283,14.044Z" transform="translate(-8.602 -2.628)"/>
          <path id="Shape-6" data-name="Shape" d="M46.044,16a3.044,3.044,0,1,0,3.044,3.044A3.044,3.044,0,0,0,46.044,16Zm0,4.566a1.522,1.522,0,1,1,1.522-1.522A1.522,1.522,0,0,1,46.044,20.566Z" transform="translate(-10.274 -3.823)"/>
          <ellipse id="Oval-8" data-name="Oval" cx="1" cy="0.5" rx="1" ry="0.5" transform="translate(33 7.663)"/>
          <circle id="Oval-9" data-name="Oval" cx="0.5" cy="0.5" r="0.5" transform="translate(29 15.663)"/>
          <path id="Shape-7" data-name="Shape" d="M.761,33.7H3.083A9.8,9.8,0,0,0,4.025,37.2L2.012,38.367a.761.761,0,1,0,.761,1.318l2.008-1.16A9.978,9.978,0,0,0,7.35,41.094L6.19,43.1a.761.761,0,1,0,1.318.761l1.163-2.013a9.788,9.788,0,0,0,3.505.942v2.322a.761.761,0,0,0,1.522,0V42.793a9.788,9.788,0,0,0,3.505-.942l1.163,2.013a.761.761,0,1,0,1.318-.761l-1.159-2.008A9.978,9.978,0,0,0,21.1,38.526l2.008,1.16a.761.761,0,1,0,.761-1.318L21.851,37.2a9.8,9.8,0,0,0,.942-3.505h2.322a.761.761,0,1,0,0-1.522H22.793a9.8,9.8,0,0,0-.942-3.505l2.013-1.163A.761.761,0,1,0,23.1,26.19L21.1,27.35a9.978,9.978,0,0,0-2.569-2.569l1.159-2.008a.761.761,0,1,0-1.318-.761L17.2,24.025a9.788,9.788,0,0,0-3.505-.942V20.761a.761.761,0,0,0-1.522,0v2.322a9.788,9.788,0,0,0-3.505.942L7.509,22.012a.761.761,0,1,0-1.318.761L7.35,24.782A9.978,9.978,0,0,0,4.781,27.35L2.773,26.19a.761.761,0,1,0-.761,1.318l2.013,1.163a9.8,9.8,0,0,0-.942,3.505H.761a.761.761,0,1,0,0,1.522Zm12.177-9.133a8.372,8.372,0,1,1-8.372,8.372A8.372,8.372,0,0,1,12.938,24.566Z" transform="translate(0 -4.779)"/>
          <path id="Shape-8" data-name="Shape" d="M12.283,35.566A2.283,2.283,0,1,0,10,33.283,2.283,2.283,0,0,0,12.283,35.566Zm0-3.044a.761.761,0,1,1-.761.761A.761.761,0,0,1,12.283,32.522Z" transform="translate(-2.389 -7.407)"/>
          <path id="Shape-9" data-name="Shape" d="M20.044,42.088A3.044,3.044,0,1,0,17,39.044,3.044,3.044,0,0,0,20.044,42.088Zm0-4.566a1.522,1.522,0,1,1-1.522,1.522A1.522,1.522,0,0,1,20.044,37.522Z" transform="translate(-4.062 -8.602)"/>
          <ellipse id="Oval-10" data-name="Oval" cx="0.5" cy="1" rx="0.5" ry="1" transform="translate(14 22.663)"/>
          <ellipse id="Oval-11" data-name="Oval" cx="1" cy="0.5" rx="1" ry="0.5" transform="translate(9 30.663)"/>
          <path id="Shape-10" data-name="Shape" d="M53.026,44.655a.761.761,0,0,0,0-1.522H51.466a7.535,7.535,0,0,0-.639-2.359l1.358-.784a.761.761,0,0,0-.761-1.318l-1.361.785a7.664,7.664,0,0,0-1.728-1.728l.785-1.361a.761.761,0,0,0-1.318-.761l-.787,1.354a7.535,7.535,0,0,0-2.359-.639V34.761a.761.761,0,0,0-1.522,0v1.561a7.535,7.535,0,0,0-2.359.639L39.99,35.6a.761.761,0,1,0-1.318.761l.782,1.365a7.664,7.664,0,0,0-1.725,1.725l-1.361-.785a.761.761,0,0,0-.761,1.318l1.358.784a7.535,7.535,0,0,0-.639,2.359H34.761a.761.761,0,0,0,0,1.522h1.561a7.534,7.534,0,0,0,.639,2.359l-1.358.784a.761.761,0,1,0,.761,1.318l1.365-.779a7.664,7.664,0,0,0,1.728,1.728l-.785,1.361a.761.761,0,1,0,1.318.761l.784-1.358a7.534,7.534,0,0,0,2.359.639v1.561a.761.761,0,0,0,1.522,0V51.466a7.534,7.534,0,0,0,2.359-.639l.784,1.358a.761.761,0,0,0,1.318-.761l-.785-1.361a7.664,7.664,0,0,0,1.728-1.728l1.361.785a.761.761,0,0,0,.761-1.318l-1.355-.787a7.534,7.534,0,0,0,.639-2.359Zm-9.133,5.327a6.088,6.088,0,1,1,6.088-6.088A6.088,6.088,0,0,1,43.894,49.982Z" transform="translate(-8.124 -8.124)"/>
          <ellipse id="Oval-12" data-name="Oval" cx="0.5" cy="1" rx="0.5" ry="1" transform="translate(36 31.663)"/>
          <ellipse id="Oval-13" data-name="Oval" cx="0.5" cy="1" rx="0.5" ry="1" transform="translate(32 32.663)"/>
          <ellipse id="Oval-14" data-name="Oval" cx="1" cy="0.5" rx="1" ry="0.5" transform="translate(38 36.663)"/>
          <circle id="Oval-15" data-name="Oval" cx="0.5" cy="0.5" r="0.5" transform="translate(33 37.663)"/>
        </g>
      </g>
    </g>
    <g id="Grupo_1112407" data-name="Grupo 1112407" transform="translate(1299.693 1038.887)">
      <g id="Grupo_1112410" data-name="Grupo 1112410" transform="translate(0.745 5.671)">
        <g id="Grupo_1112409" data-name="Grupo 1112409">
          <g id="XMLID_427_">
            <g id="Grupo_1112407-2" data-name="Grupo 1112407">
              <path id="Trazado_979222" data-name="Trazado 979222" d="M55.481,36.845A1.544,1.544,0,0,1,56.7,38.656l-.61,3.109a1.543,1.543,0,0,1-1.884,1.2,1.571,1.571,0,0,1-1.136-1.837l.017-.083-4.024.184a.291.291,0,0,0-.264.2,17.312,17.312,0,0,1-1.536,3.376.293.293,0,0,0,.027.338l1.78,2.114a1.858,1.858,0,0,1,2.754,2.476l-.516.674a1.887,1.887,0,0,1-2.556.438,1.858,1.858,0,0,1-.708-2.125L45.478,47.6a.293.293,0,0,0-.334.072,17.5,17.5,0,0,1-4.1,3.32.293.293,0,0,0-.142.3l.656,4,.568-.227a1.544,1.544,0,0,1,2.033.93,1.571,1.571,0,0,1-.926,1.951l-2.9,1.161a1.543,1.543,0,0,1-2.032-.93,1.572,1.572,0,0,1,.926-1.952l.078-.031-2.34-3.279a.292.292,0,0,0-.313-.112,17.488,17.488,0,0,1-7.871.2.3.3,0,0,0-.307.129l-2.341,3.673.082.03a1.877,1.877,0,0,1,1.121,2.408,1.309,1.309,0,0,1-1.877,1.313L22.582,59.51a1.876,1.876,0,0,1-1.132-2.373A1.916,1.916,0,0,1,23.914,56l.066.024.476-4.3a.293.293,0,0,0-.158-.293,17.46,17.46,0,0,1-4.833-3.69.293.293,0,0,0-.327-.073L15.628,49.1a1.653,1.653,0,0,1-.551,2.16,1.686,1.686,0,0,1-2.294-.476l-.9-1.3a1.683,1.683,0,0,1,.307-2.278,1.653,1.653,0,0,1,2.344.3l2.473-2.795a.293.293,0,0,0,.036-.336,17.283,17.283,0,0,1-2.009-6.022.292.292,0,0,0-.223-.246L10.86,37.2l0,.464a1.693,1.693,0,0,1-1.692,1.676A1.662,1.662,0,0,1,7.5,37.665l.026-2.871A1.713,1.713,0,0,1,9.25,33.088a1.677,1.677,0,0,1,1.632,1.685l3.923-.92a.292.292,0,0,0,.223-.247,17.283,17.283,0,0,1,2.164-6.339.294.294,0,0,0-.03-.336l-1.871-2.2-.163.214a1.472,1.472,0,0,1-2.117.242,1.5,1.5,0,0,1-.205-2.052l1.247-1.648a1.471,1.471,0,0,1,2.416,1.676L19.085,24.3a.3.3,0,0,0,.333-.072A17.446,17.446,0,0,1,23.7,20.805a.3.3,0,0,0,.146-.3l-.6-4.011-.572.22a1.543,1.543,0,0,1-2.019-.957,1.571,1.571,0,0,1,.952-1.939L24.526,12.7a1.542,1.542,0,0,1,2.019.957,1.571,1.571,0,0,1-.952,1.939l-.078.03,2.295,3.309a.292.292,0,0,0,.311.117,17.424,17.424,0,0,1,4.155-.5h0a.294.294,0,0,0,.279-.195l.76-2.126a1.952,1.952,0,0,1-1.355-2.091,2,2,0,0,1,2.228-1.7l1.044.131a1.985,1.985,0,0,1,1.746,2.154A1.953,1.953,0,0,1,35.532,16.4l.264,2.3a.292.292,0,0,0,.229.252,17.3,17.3,0,0,1,4.948,1.922.292.292,0,0,0,.331-.026L44.453,18.3l-.478-.38a1.542,1.542,0,0,1-.2-2.225,1.57,1.57,0,0,1,2.154-.165l2.447,1.942a1.542,1.542,0,0,1,.2,2.225,1.572,1.572,0,0,1-2.154.165l-.066-.053-1.686,3.661a.292.292,0,0,0,.058.328,17.446,17.446,0,0,1,2.989,4.126.294.294,0,0,0,.3.156l2.391-.334a1.86,1.86,0,0,1,1.172-2.4,1.889,1.889,0,0,1,2.337,1.16l.551,1.477a1.893,1.893,0,0,1-.983,2.4,1.86,1.86,0,0,1-2.333-.739l-1.984,1.346a.292.292,0,0,0-.117.321,17.434,17.434,0,0,1,.626,4.643q0,.4-.019.8a.294.294,0,0,0,.175.283l3.72,1.625.117-.6a1.544,1.544,0,0,1,1.811-1.218Z" transform="translate(-7.502 -12.424)" fill="#f79595"/>
            </g>
          </g>
          <ellipse id="Elipse_11802" data-name="Elipse 11802" cx="2.457" cy="2.054" rx="2.457" ry="2.054" transform="translate(29.872 12.908)" fill="#ee6161"/>
          <circle id="Elipse_11803" data-name="Elipse 11803" cx="2.686" cy="2.686" r="2.686" transform="translate(20.777 25.071)" fill="#ee6161"/>
          <circle id="Elipse_11804" data-name="Elipse 11804" cx="1.923" cy="1.923" r="1.923" transform="translate(32.006 24.434)" fill="#f9b1b1"/>
          <circle id="Elipse_11805" data-name="Elipse 11805" cx="1.869" cy="1.869" r="1.869" transform="translate(24.958 33.871)" fill="#f9b1b1"/>
          <g id="Grupo_1112408" data-name="Grupo 1112408" transform="translate(0 0.171)">
            <path id="Trazado_979223" data-name="Trazado 979223" d="M21.692,36.677a20.568,20.568,0,0,1,8.133-16.4,17.306,17.306,0,0,0-1.7.328.292.292,0,0,1-.311-.117L25.515,17.18l.078-.03a1.571,1.571,0,0,0,.952-1.939,1.542,1.542,0,0,0-2.019-.957l-2.916,1.122a1.571,1.571,0,0,0-.952,1.939,1.543,1.543,0,0,0,2.019.957l.572-.22.6,4.011a.3.3,0,0,1-.146.3,17.446,17.446,0,0,0-4.287,3.421.3.3,0,0,1-.333.072L16.47,24.723a1.471,1.471,0,0,0-2.416-1.676l-1.247,1.648a1.5,1.5,0,0,0,.205,2.052A1.472,1.472,0,0,0,15.13,26.5l.163-.214,1.871,2.2a.294.294,0,0,1,.03.336,17.283,17.283,0,0,0-2.164,6.339.292.292,0,0,1-.223.247l-3.923.92a1.677,1.677,0,0,0-1.632-1.685,1.713,1.713,0,0,0-1.722,1.705L7.5,39.221A1.662,1.662,0,0,0,9.165,40.9a1.693,1.693,0,0,0,1.692-1.676l0-.463,3.952.913a.292.292,0,0,1,.223.246,17.283,17.283,0,0,0,2.009,6.022.293.293,0,0,1-.036.336l-2.473,2.795a1.653,1.653,0,0,0-2.344-.3,1.683,1.683,0,0,0-.307,2.278l.9,1.3a1.686,1.686,0,0,0,2.294.476,1.653,1.653,0,0,0,.551-2.16l3.511-1.44a.293.293,0,0,1,.327.073,17.46,17.46,0,0,0,4.833,3.69.293.293,0,0,1,.158.293l-.476,4.3-.066-.024a1.916,1.916,0,0,0-2.464,1.137,1.876,1.876,0,0,0,1.132,2.373l2.877,1.049A1.309,1.309,0,0,0,27.337,60.8a1.877,1.877,0,0,0-1.121-2.408l-.082-.03,2.341-3.673a.3.3,0,0,1,.307-.129,17.449,17.449,0,0,0,3.493.352c.141,0,.284,0,.424-.005A20.6,20.6,0,0,1,21.692,36.677Z" transform="translate(-7.503 -14.151)" fill="#f37c7c"/>
          </g>
          <circle id="Elipse_11806" data-name="Elipse 11806" cx="1.947" cy="1.947" r="1.947" transform="translate(13.182 29.322)" fill="#ee6161"/>
        </g>
        <ellipse id="Elipse_11807" data-name="Elipse 11807" cx="5.127" cy="4.282" rx="5.127" ry="4.282" transform="translate(12.328 16.825) rotate(-38.257)" fill="#ee6161"/>
      </g>
      <g id="Grupo_1112411" data-name="Grupo 1112411" transform="translate(0 4.927)">
        <path id="Trazado_979224" data-name="Trazado 979224" d="M85.822,145.814a2.288,2.288,0,0,0-2.6,1.5l-2.606-1.138c.005-.178.008-.354.008-.525a18.2,18.2,0,0,0-.57-4.528l1.169-.793a2.6,2.6,0,0,0,4.144-2.909l-.55-1.477a2.62,2.62,0,0,0-3.267-1.607,2.61,2.61,0,0,0-1.795,2.471L78.423,137c-.182-.333-.38-.671-.592-1.007a.744.744,0,0,0-1.259.794c.25.4.479.795.681,1.182a1.04,1.04,0,0,0,1.063.549l2.392-.334a.744.744,0,0,0,.6-.989,1.116,1.116,0,0,1,.7-1.438,1.149,1.149,0,0,1,1.408.713l.55,1.477a1.155,1.155,0,0,1-.582,1.457,1.12,1.12,0,0,1-1.4-.442.744.744,0,0,0-1.054-.23l-1.984,1.346a1.037,1.037,0,0,0-.417,1.135,16.7,16.7,0,0,1,.6,4.444c0,.247-.006.5-.018.767a1.043,1.043,0,0,0,.621,1l3.719,1.624a.744.744,0,0,0,1.028-.539l.118-.6a.8.8,0,0,1,1.568.308l-.61,3.108a.8.8,0,0,1-.976.622.831.831,0,0,1-.583-.972l.016-.083a.745.745,0,0,0-.764-.887l-4.023.184a1.044,1.044,0,0,0-.937.711,16.606,16.606,0,0,1-1.47,3.232,1.039,1.039,0,0,0,.1,1.2l1.78,2.114a.744.744,0,0,0,1.083.06,1.113,1.113,0,0,1,1.65,1.484l-.516.674a1.151,1.151,0,0,1-1.543.278,1.12,1.12,0,0,1-.424-1.274.744.744,0,0,0-.406-.919l-2.564-1.126a1.037,1.037,0,0,0-1.185.252,16.714,16.714,0,0,1-3.924,3.179,1.043,1.043,0,0,0-.5,1.063l.656,4a.744.744,0,0,0,1.011.571l.568-.227a.8.8,0,0,1,1.052.482.831.831,0,0,1-.5,1.017l-2.9,1.16a.8.8,0,0,1-1.052-.482.831.831,0,0,1,.5-1.017l.078-.031a.744.744,0,0,0,.329-1.124l-2.34-3.278a1.044,1.044,0,0,0-1.105-.4,16.755,16.755,0,0,1-7.535.2,1.045,1.045,0,0,0-1.083.458L55.7,166.107a.745.745,0,0,0,.373,1.1l.083.03a1.133,1.133,0,0,1,.676,1.453.742.742,0,0,0-.045.255.58.58,0,0,1-.878.614l-2.877-1.049a1.139,1.139,0,0,1-.684-1.432,1.1,1.1,0,0,1,.576-.633,1.211,1.211,0,0,1,.931-.047l.066.024a.744.744,0,0,0,.995-.617l.477-4.3a1.043,1.043,0,0,0-.556-1.036,16.665,16.665,0,0,1-4.628-3.533,1.041,1.041,0,0,0-1.157-.258l-3.511,1.44a.744.744,0,0,0-.374,1.039.9.9,0,0,1-.3,1.188.94.94,0,0,1-1.273-.28l-.9-1.295a.934.934,0,0,1,.156-1.269.909.909,0,0,1,1.289.165.744.744,0,0,0,1.151.044l2.473-2.8a1.04,1.04,0,0,0,.129-1.191,16.664,16.664,0,0,1-.735-1.5.744.744,0,0,0-1.368.588c.2.463.416.917.649,1.355l-1.771,2a2.4,2.4,0,0,0-2.739.164,2.424,2.424,0,0,0-.457,3.288l.9,1.294a2.438,2.438,0,0,0,3.314.674,2.387,2.387,0,0,0,1.058-2.354l2.588-1.062a18.144,18.144,0,0,0,4.551,3.474l-.354,3.2a2.71,2.71,0,0,0-1.241.262,2.575,2.575,0,0,0-1.343,1.493,2.635,2.635,0,0,0,1.582,3.314l2.877,1.049a2.508,2.508,0,0,0,.858.157,1.987,1.987,0,0,0,1.15-.35,2.135,2.135,0,0,0,.866-1.69,2.627,2.627,0,0,0-.889-2.84l1.748-2.742a18.317,18.317,0,0,0,7.6-.2l1.7,2.38a2.283,2.283,0,0,0,2.372,3.82l2.9-1.16a2.307,2.307,0,0,0,1.353-2.887,2.27,2.27,0,0,0-1.212-1.334,2.3,2.3,0,0,0-1.5-.139l-.46-2.8a18.194,18.194,0,0,0,3.786-3.065l1.732.761a2.6,2.6,0,0,0,4.691,1.694l.516-.674a2.6,2.6,0,0,0-3.209-3.922l-1.142-1.357a18.113,18.113,0,0,0,1.342-2.951l2.92-.133a2.283,2.283,0,0,0,4.5.083l.61-3.108A2.29,2.29,0,0,0,85.822,145.814Z" transform="translate(-36.955 -121.379)"/>
        <path id="Trazado_979225" data-name="Trazado 979225" d="M4.8,31.372l2.79.644c.061.388.136.782.224,1.175a.744.744,0,1,0,1.453-.326c-.1-.457-.186-.915-.247-1.36a1.043,1.043,0,0,0-.794-.87L4.27,29.723a.744.744,0,0,0-.912.719l0,.463a.951.951,0,0,1-.948.939.918.918,0,0,1-.918-.926l.026-2.871a1,1,0,0,1,.307-.707.894.894,0,0,1,.651-.261.937.937,0,0,1,.907.937.744.744,0,0,0,.914.729l3.924-.92a1.043,1.043,0,0,0,.791-.872,16.485,16.485,0,0,1,2.07-6.067,1.04,1.04,0,0,0-.108-1.191L9.1,17.5a.744.744,0,0,0-1.161.033l-.162.214a.728.728,0,0,1-1.047.119.757.757,0,0,1-.088-1.03l1.246-1.648a.727.727,0,0,1,1.194.827A.744.744,0,0,0,9.415,17.1l2.617,1.132a1.038,1.038,0,0,0,1.178-.254,16.7,16.7,0,0,1,4.1-3.276,1.044,1.044,0,0,0,.515-1.056l-.6-4.011a.745.745,0,0,0-1-.584l-.571.22a.8.8,0,0,1-1.046-.5.83.83,0,0,1,.513-1.011L18.035,6.64a.8.8,0,0,1,1.046.5.831.831,0,0,1-.513,1.011l-.079.03A.744.744,0,0,0,18.145,9.3l2.3,3.309a1.043,1.043,0,0,0,1.1.415,16.74,16.74,0,0,1,3.979-.477h0a1.041,1.041,0,0,0,.98-.688l.76-2.127a.745.745,0,0,0-.479-.961,1.206,1.206,0,0,1-.837-1.292,1.172,1.172,0,0,1,.453-.785,1.282,1.282,0,0,1,.943-.265l1.044.131a1.239,1.239,0,0,1,1.1,1.334,1.2,1.2,0,0,1-.9,1.037.744.744,0,0,0-.551.8l.264,2.3a1.038,1.038,0,0,0,.809.895,16.536,16.536,0,0,1,4.735,1.84,1.043,1.043,0,0,0,1.173-.092l3.149-2.556a.744.744,0,0,0-.006-1.161l-.479-.38a.8.8,0,0,1-.1-1.153.83.83,0,0,1,1.131-.071L41.153,11.3a.8.8,0,0,1,.1,1.153.831.831,0,0,1-1.131.072l-.066-.052a.744.744,0,0,0-1.139.271L37.234,16.4a1.044,1.044,0,0,0,.2,1.159c.106.108.21.221.335.356a.744.744,0,1,0,1.1-1.008l-.15-.162,1.225-2.659a2.283,2.283,0,0,0,2.139-3.955L39.632,8.191a2.307,2.307,0,0,0-3.178.258,2.269,2.269,0,0,0-.557,1.714,2.3,2.3,0,0,0,.626,1.374l-2.206,1.791a18.019,18.019,0,0,0-4.576-1.78l-.164-1.428a2.694,2.694,0,0,0-1.009-5.042l-1.044-.131a2.783,2.783,0,0,0-2.046.569A2.65,2.65,0,0,0,24.464,7.3,2.7,2.7,0,0,0,25.634,9.85L25.2,11.056a18.231,18.231,0,0,0-3.715.446L19.822,9.1A2.283,2.283,0,0,0,17.5,5.25L14.585,6.371A2.307,2.307,0,0,0,13.194,9.24a2.269,2.269,0,0,0,1.194,1.35,2.3,2.3,0,0,0,1.5.159l.422,2.811a18.179,18.179,0,0,0-3.982,3.176l-1.681-.727a2.229,2.229,0,0,0-.843-2.15,2.216,2.216,0,0,0-3.1.431L5.455,15.937a2.234,2.234,0,0,0,.322,3.072,2.2,2.2,0,0,0,1.673.5A2.224,2.224,0,0,0,8.505,19.1L9.633,20.42a17.951,17.951,0,0,0-2.055,6.027l-2.88.675a2.436,2.436,0,0,0-2.185-1.531,2.379,2.379,0,0,0-1.725.678,2.5,2.5,0,0,0-.762,1.764L0,30.9a2.406,2.406,0,0,0,2.406,2.428A2.446,2.446,0,0,0,4.8,31.372Z" transform="translate(0 -4.927)"/>
        <path id="Trazado_979226" data-name="Trazado 979226" d="M150.6,139.782a.744.744,0,0,0-.7-1.315,3.827,3.827,0,0,1-4.821-.593,3.2,3.2,0,0,1-.551-2.693,5.124,5.124,0,0,1,4.944-3.9,3.2,3.2,0,0,1,2.49,1.165,3.6,3.6,0,0,1-.028,4.122.744.744,0,0,0,1.269.779,5.063,5.063,0,0,0-.072-5.822,4.664,4.664,0,0,0-3.617-1.731,6.61,6.61,0,0,0-6.443,5.079,4.665,4.665,0,0,0,.839,3.921,4.748,4.748,0,0,0,3.79,1.726A6.205,6.205,0,0,0,150.6,139.782Z" transform="translate(-128.766 -117.4)"/>
        <path id="Trazado_979227" data-name="Trazado 979227" d="M307.38,137.781a3.23,3.23,0,1,0-3.2,2.8A3.024,3.024,0,0,0,307.38,137.781Zm-4.914,0a1.775,1.775,0,1,1,1.713,1.31A1.554,1.554,0,0,1,302.466,137.781Z" transform="translate(-271.105 -122.074)"/>
        <path id="Trazado_979228" data-name="Trazado 979228" d="M216.2,260.953a3.43,3.43,0,1,0-3.43,3.43A3.434,3.434,0,0,0,216.2,260.953Zm-5.371,0a1.941,1.941,0,1,1,1.941,1.941A1.943,1.943,0,0,1,210.825,260.953Z" transform="translate(-188.559 -232.453)"/>
        <path id="Trazado_979229" data-name="Trazado 979229" d="M327.815,253.777a2.667,2.667,0,1,0-2.667,2.667A2.67,2.67,0,0,0,327.815,253.777Zm-3.846,0a1.179,1.179,0,1,1,1.179,1.179A1.18,1.18,0,0,1,323.969,253.777Z" transform="translate(-290.474 -226.676)"/>
        <path id="Trazado_979230" data-name="Trazado 979230" d="M254.079,351.425a2.614,2.614,0,1,0-2.614-2.614A2.617,2.617,0,0,0,254.079,351.425Zm0-3.739a1.125,1.125,0,1,1-1.125,1.125A1.126,1.126,0,0,1,254.079,347.686Z" transform="translate(-226.507 -312.326)"/>
        <path id="Trazado_979231" data-name="Trazado 979231" d="M135.51,305.738a2.692,2.692,0,1,0-2.692-2.692A2.695,2.695,0,0,0,135.51,305.738Zm0-3.895a1.2,1.2,0,1,1-1.2,1.2A1.2,1.2,0,0,1,135.51,301.843Z" transform="translate(-119.636 -271.033)"/>
        <path id="Trazado_979232" data-name="Trazado 979232" d="M293.18,226.857a.744.744,0,0,0-.744-.744h-.658a.744.744,0,1,0,0,1.489h.658A.744.744,0,0,0,293.18,226.857Z" transform="translate(-262.148 -204.16)"/>
        <path id="Trazado_979233" data-name="Trazado 979233" d="M203.269,358.7h.676a.744.744,0,1,0,0-1.489h-.676a.744.744,0,1,0,0,1.489Z" transform="translate(-182.424 -322.248)"/>
        <path id="Trazado_979234" data-name="Trazado 979234" d="M134.214,249.48a.744.744,0,0,0,0-1.489h-.651a.744.744,0,0,0,0,1.489Z" transform="translate(-119.636 -223.867)"/>
        <path id="Trazado_979235" data-name="Trazado 979235" d="M265.106,118.263a.744.744,0,1,0,0-1.489H264.2a.744.744,0,1,0,0,1.489Z" transform="translate(-237.307 -105.673)"/>
        <path id="Trazado_979236" data-name="Trazado 979236" d="M323.223,332.8a.744.744,0,1,0,0,1.489h1a.744.744,0,1,0,0-1.489Z" transform="translate(-290.473 -300.256)"/>
      </g>
    </g>
    <g id="Grupo_1112414" data-name="Grupo 1112414" transform="translate(1225.051 1007.797)">
      <g id="Grupo_1112412" data-name="Grupo 1112412" transform="translate(27.926 38)">
        <circle id="Elipse_11809" data-name="Elipse 11809" cx="1.5" cy="1.5" r="1.5" transform="translate(33.831 24.817)"/>
        <circle id="Elipse_11810" data-name="Elipse 11810" cx="0.552" cy="0.552" r="0.552" transform="translate(2.908 20.503)"/>
        <path id="Trazado_979237" data-name="Trazado 979237" d="M83.634,84.56A.741.741,0,0,1,83.11,83.3l2.738-2.738A.741.741,0,0,1,86.9,81.605l-2.738,2.738A.738.738,0,0,1,83.634,84.56Z" transform="translate(-77.542 -72.499)"/>
        <path id="Trazado_979238" data-name="Trazado 979238" d="M86.372,84.56a.739.739,0,0,1-.524-.217L83.11,81.605a.741.741,0,1,1,1.048-1.048L86.9,83.3a.741.741,0,0,1-.524,1.265Z" transform="translate(-77.542 -72.499)"/>
        <path id="Trazado_979239" data-name="Trazado 979239" d="M204.593,223.184a2.593,2.593,0,1,1,2.593-2.593A2.6,2.6,0,0,1,204.593,223.184Zm0-3.7a1.111,1.111,0,1,0,1.111,1.111A1.112,1.112,0,0,0,204.593,219.48Z" transform="translate(-174.589 -184.661)"/>
        <path id="Trazado_979240" data-name="Trazado 979240" d="M56.222,216.367a.741.741,0,0,1-.712-.537l-1.482-5.186a.74.74,0,0,1,.077-.585l2.222-3.7a.741.741,0,1,1,1.27.762l-2.057,3.429,1.393,4.876a.742.742,0,0,1-.712.945Z" transform="translate(-54 -174.881)"/>
        <path id="Trazado_979241" data-name="Trazado 979241" d="M84.964,219.626a.74.74,0,0,1-.663-.409l-2.222-4.445a.742.742,0,0,1-.025-.607l1.482-3.7a.741.741,0,1,1,1.376.55l-1.358,3.4,2.074,4.147a.741.741,0,0,1-.662,1.072Z" transform="translate(-76.814 -178.141)"/>
        <path id="Trazado_979242" data-name="Trazado 979242" d="M117.7,215.629a.739.739,0,0,1-.579-.278l-2.963-3.7a.74.74,0,0,1-.162-.463v-4.445a.741.741,0,0,1,1.482,0v4.185l2.8,3.5a.741.741,0,0,1-.578,1.2Z" transform="translate(-102.888 -174.884)"/>
        <path id="Trazado_979243" data-name="Trazado 979243" d="M139.926,205.4a.736.736,0,0,1-.234-.038l-4.445-1.482a.742.742,0,0,1-.5-.581l-.741-4.445a.741.741,0,1,1,1.461-.244l.667,4.005,4.022,1.341a.741.741,0,0,1-.234,1.444Z" transform="translate(-119.183 -168.362)"/>
        <path id="Trazado_979244" data-name="Trazado 979244" d="M154.149,189.7H149.7a.741.741,0,0,1-.444-.148l-2.963-2.222a.741.741,0,0,1,.889-1.185l2.766,2.074h4.2a.741.741,0,0,1,0,1.482Z" transform="translate(-128.961 -158.588)"/>
        <path id="Trazado_979245" data-name="Trazado 979245" d="M150.444,165.7a.742.742,0,0,1-.381-.106l-3.7-2.222a.741.741,0,1,1,.762-1.27l3.412,2.047,4.122-1.374a.741.741,0,0,1,.469,1.406l-4.445,1.482a.748.748,0,0,1-.234.038Z" transform="translate(-128.96 -139.032)"/>
        <path id="Trazado_979246" data-name="Trazado 979246" d="M154.443,140.96a.748.748,0,0,1-.275-.053l-3.7-1.482a.741.741,0,1,1,.55-1.376l3.429,1.372,3.429-1.372a.741.741,0,1,1,.55,1.376l-3.7,1.482a.752.752,0,0,1-.275.053Z" transform="translate(-132.219 -119.476)"/>
        <path id="Trazado_979247" data-name="Trazado 979247" d="M158.148,112.961h-3.7a.747.747,0,0,1-.275-.053l-3.7-1.482a.741.741,0,1,1,.55-1.376l3.571,1.429h3.562a.741.741,0,0,1,0,1.482Z" transform="translate(-132.219 -96.663)"/>
        <path id="Trazado_979248" data-name="Trazado 979248" d="M162.149,79.924a.749.749,0,0,1-.123-.01l-4.445-.741a.741.741,0,0,1-.457-.268l-2.963-3.7a.741.741,0,1,1,1.157-.925l2.786,3.483,4.165.694a.741.741,0,0,1-.121,1.471Z" transform="translate(-135.479 -67.33)"/>
        <path id="Trazado_979249" data-name="Trazado 979249" d="M195.185,58.147a.737.737,0,0,1-.41-.124l-4.445-2.963a.741.741,0,0,1-.33-.616v-3.7a.741.741,0,1,1,1.482,0v3.308L195.6,56.79a.741.741,0,0,1-.412,1.357Z" transform="translate(-164.812 -47.776)"/>
        <path id="Trazado_979250" data-name="Trazado 979250" d="M221.7,46.889a.738.738,0,0,1-.579-.278l-2.963-3.7a.74.74,0,0,1-.148-.608l.741-3.7a.741.741,0,0,1,1.453.291l-.673,3.366,2.748,3.435a.741.741,0,0,1-.578,1.2Z" transform="translate(-187.626 -38)"/>
      </g>
      <g id="Grupo_1112413" data-name="Grupo 1112413" transform="translate(25.334 39.815)">
        <path id="Trazado_979251" data-name="Trazado 979251" d="M53.535,87.768a28.774,28.774,0,0,1-8.263-1.212,1.852,1.852,0,0,1,1.158-3.518c.094.03,9.775,3.1,16.509-1.61,3.346-2.342,3.2-7.587,3.054-12.659-.131-4.645-.255-9.032,2.158-11.847,5.009-5.844,13.794-5.118,14.168-5.084a1.852,1.852,0,0,1-.331,3.689c-.074-.008-7.272-.573-11.024,3.805-1.482,1.729-1.373,5.594-1.267,9.332.163,5.771.347,12.312-4.633,15.8A19.926,19.926,0,0,1,53.535,87.768Z" transform="translate(-43.258 -51.053)" fill="#a9ba5a"/>
        <path id="Trazado_979252" data-name="Trazado 979252" d="M50.278,85.257a29.764,29.764,0,0,1-8.5-1.249A2.593,2.593,0,0,1,43.4,79.082c.089.029,9.46,2.961,15.853-1.513C62.275,75.456,62.133,70.415,62,65.54c-.135-4.8-.263-9.321,2.336-12.353,5.256-6.133,14.408-5.375,14.8-5.34a2.593,2.593,0,0,1,1.422,4.577,2.561,2.561,0,0,1-1.889.587c-.069,0-6.889-.539-10.394,3.55-1.3,1.512-1.186,5.4-1.089,8.829.168,5.958.359,12.711-4.949,16.426a20.413,20.413,0,0,1-11.953,3.44Zm-7.683-4.823a1.111,1.111,0,0,0-.349,2.166,28.11,28.11,0,0,0,8.032,1.175,18.964,18.964,0,0,0,11.1-3.172c4.654-3.257,4.475-9.586,4.318-15.169-.11-3.878-.223-7.888,1.445-9.835,4.053-4.728,11.591-4.068,11.665-4.06a1.087,1.087,0,0,0,.794-.252,1.112,1.112,0,0,0-.608-1.962c-.357-.034-8.775-.729-13.539,4.828-2.226,2.6-2.106,6.845-1.98,11.342.149,5.272.3,10.718-3.37,13.289-7.02,4.913-17.062,1.74-17.163,1.708A1.124,1.124,0,0,0,42.595,80.434Z" transform="translate(-40.001 -47.801)"/>
      </g>
      <path id="Trazado_979253" data-name="Trazado 979253" d="M259.333,51.183a.739.739,0,0,1-.417-.129l-2.593-1.772a.741.741,0,0,1-.117-1.124l1.852-1.932a.741.741,0,1,1,1.07,1.025l-1.247,1.3,1.871,1.279a.741.741,0,0,1-.419,1.353Z" transform="translate(-190.662 -6.516)"/>
      <path id="Trazado_979254" data-name="Trazado 979254" d="M22.741,208.666a.741.741,0,0,1-.319-1.41l2.878-1.372-1.707-2.755a.741.741,0,1,1,1.26-.781l2.143,3.457a.741.741,0,0,1-.311,1.059l-3.625,1.728A.741.741,0,0,1,22.741,208.666Z" transform="translate(0 -133.625)"/>
    </g>
  </g>
</svg>
